<?xml version="1.0" encoding="UTF-8"?>
<svg xmlns="http://www.w3.org/2000/svg" xmlns:xlink="http://www.w3.org/1999/xlink" width="490.2pt" height="166.52pt" viewBox="0 0 490.2 166.52" version="1.2">
<defs>
<g>
<symbol overflow="visible" id="glyph0-0">
<path style="stroke:none;" d=""/>
</symbol>
<symbol overflow="visible" id="glyph0-1">
<path style="stroke:none;" d="M 4.546875 -3.4375 C 4.546875 -3.671875 4.359375 -3.953125 3.875 -3.953125 C 3.671875 -3.953125 3.28125 -3.890625 2.953125 -3.640625 C 2.703125 -3.796875 2.390625 -3.890625 2.078125 -3.890625 C 1.25 -3.890625 0.578125 -3.25 0.578125 -2.453125 C 0.578125 -2.125 0.703125 -1.84375 0.859375 -1.625 C 0.78125 -1.484375 0.6875 -1.25 0.6875 -1.015625 C 0.6875 -0.640625 0.875 -0.390625 0.890625 -0.375 C 0.28125 0 0.265625 0.578125 0.265625 0.71875 C 0.265625 1.5 1.203125 2.03125 2.34375 2.03125 C 3.46875 2.03125 4.421875 1.5 4.421875 0.71875 C 4.421875 -0.5625 2.78125 -0.5625 2.515625 -0.5625 L 1.890625 -0.5625 C 1.8125 -0.5625 1.703125 -0.5625 1.625 -0.59375 C 1.484375 -0.59375 1.453125 -0.59375 1.34375 -0.703125 C 1.265625 -0.78125 1.25 -0.890625 1.25 -1.015625 C 1.25 -1.046875 1.25 -1.15625 1.28125 -1.234375 C 1.53125 -1.09375 1.8125 -1.015625 2.078125 -1.015625 C 2.921875 -1.015625 3.578125 -1.671875 3.578125 -2.453125 C 3.578125 -2.75 3.5 -3 3.359375 -3.21875 C 3.546875 -3.328125 3.6875 -3.359375 3.8125 -3.359375 C 3.859375 -3.125 4.046875 -3.0625 4.171875 -3.0625 C 4.375 -3.0625 4.546875 -3.21875 4.546875 -3.4375 Z M 2.921875 -2.453125 C 2.921875 -1.96875 2.53125 -1.59375 2.078125 -1.59375 C 1.625 -1.59375 1.25 -1.96875 1.25 -2.453125 C 1.25 -2.9375 1.625 -3.328125 2.078125 -3.328125 C 2.53125 -3.328125 2.921875 -2.9375 2.921875 -2.453125 Z M 3.875 0.71875 C 3.875 1.078125 3.25 1.46875 2.34375 1.46875 C 1.46875 1.46875 0.8125 1.09375 0.8125 0.71875 C 0.8125 0.390625 1.09375 0.015625 1.5625 -0.015625 L 2.09375 -0.015625 C 2.890625 -0.015625 3.875 -0.015625 3.875 0.71875 Z M 3.875 0.71875 "/>
</symbol>
<symbol overflow="visible" id="glyph0-2">
<path style="stroke:none;" d="M 4.171875 -0.96875 C 4.171875 -1.15625 4.03125 -1.25 3.828125 -1.25 C 3.71875 -1.25 3.59375 -1.25 3.515625 -1.046875 C 3.453125 -0.90625 3.296875 -0.53125 2.671875 -0.53125 C 1.90625 -0.53125 1.296875 -1.15625 1.296875 -1.9375 C 1.296875 -2.390625 1.578125 -3.34375 2.71875 -3.34375 C 2.875 -3.34375 3 -3.328125 3.03125 -3.328125 C 3.203125 -3.3125 3.21875 -3.3125 3.21875 -3.21875 C 3.25 -2.921875 3.5 -2.828125 3.640625 -2.828125 C 3.875 -2.828125 4.0625 -3.015625 4.0625 -3.25 C 4.0625 -3.921875 3.140625 -3.921875 2.71875 -3.921875 C 1.1875 -3.921875 0.640625 -2.71875 0.640625 -1.9375 C 0.640625 -0.84375 1.515625 0.046875 2.609375 0.046875 C 3.890625 0.046875 4.171875 -0.84375 4.171875 -0.96875 Z M 4.171875 -0.96875 "/>
</symbol>
<symbol overflow="visible" id="glyph0-3">
<path style="stroke:none;" d="M 4.375 -1.9375 C 4.375 -3 3.609375 -3.890625 2.609375 -3.890625 C 2.1875 -3.890625 1.8125 -3.75 1.5 -3.484375 C 1.5 -3.8125 1.390625 -3.859375 1.125 -3.859375 L 0.453125 -3.859375 C 0.328125 -3.859375 0.078125 -3.859375 0.078125 -3.5625 C 0.078125 -3.265625 0.3125 -3.265625 0.453125 -3.265625 L 0.84375 -3.265625 L 0.84375 1.40625 L 0.453125 1.40625 C 0.328125 1.40625 0.078125 1.40625 0.078125 1.6875 C 0.078125 1.984375 0.3125 1.984375 0.453125 1.984375 L 1.890625 1.984375 C 2.015625 1.984375 2.265625 1.984375 2.265625 1.703125 C 2.265625 1.40625 2.03125 1.40625 1.890625 1.40625 L 1.5 1.40625 L 1.5 -0.390625 C 1.78125 -0.109375 2.125 0.046875 2.515625 0.046875 C 3.515625 0.046875 4.375 -0.796875 4.375 -1.9375 Z M 3.71875 -1.9375 C 3.71875 -1.140625 3.140625 -0.53125 2.484375 -0.53125 C 1.84375 -0.53125 1.5 -1.265625 1.5 -1.71875 L 1.5 -2.34375 C 1.5 -2.875 2.03125 -3.3125 2.578125 -3.3125 C 3.1875 -3.3125 3.71875 -2.703125 3.71875 -1.9375 Z M 3.71875 -1.9375 "/>
</symbol>
<symbol overflow="visible" id="glyph0-4">
<path style="stroke:none;" d="M 4.1875 -2.71875 C 4.1875 -3.0625 3.859375 -3.0625 3.75 -3.0625 L 0.9375 -3.0625 C 0.84375 -3.0625 0.5 -3.0625 0.5 -2.734375 C 0.5 -2.390625 0.828125 -2.390625 0.9375 -2.390625 L 3.75 -2.390625 C 3.84375 -2.390625 4.1875 -2.390625 4.1875 -2.71875 Z M 4.1875 -2.71875 "/>
</symbol>
<symbol overflow="visible" id="glyph0-5">
<path style="stroke:none;" d="M 4.109375 -0.28125 C 4.109375 -0.578125 3.859375 -0.578125 3.734375 -0.578125 L 2.78125 -0.578125 L 2.78125 -3.484375 C 2.78125 -3.765625 2.71875 -3.859375 2.40625 -3.859375 L 1.125 -3.859375 C 0.984375 -3.859375 0.734375 -3.859375 0.734375 -3.5625 C 0.734375 -3.265625 0.96875 -3.265625 1.125 -3.265625 L 2.125 -3.265625 L 2.125 -0.578125 L 1.03125 -0.578125 C 0.90625 -0.578125 0.65625 -0.578125 0.65625 -0.296875 C 0.65625 0 0.90625 0 1.03125 0 L 3.734375 0 C 3.859375 0 4.109375 0 4.109375 -0.28125 Z M 2.8125 -4.96875 C 2.8125 -5.21875 2.59375 -5.421875 2.34375 -5.421875 C 2.09375 -5.421875 1.890625 -5.21875 1.890625 -4.96875 C 1.890625 -4.71875 2.09375 -4.515625 2.34375 -4.515625 C 2.59375 -4.515625 2.8125 -4.71875 2.8125 -4.96875 Z M 2.8125 -4.96875 "/>
</symbol>
<symbol overflow="visible" id="glyph0-6">
<path style="stroke:none;" d="M 4.140625 -0.96875 C 4.140625 -1.15625 4.015625 -1.25 3.8125 -1.25 C 3.6875 -1.25 3.578125 -1.25 3.5 -1.046875 C 3.28125 -0.53125 2.703125 -0.53125 2.609375 -0.53125 C 2.09375 -0.53125 1.34375 -0.84375 1.15625 -1.6875 L 3.765625 -1.6875 C 3.953125 -1.6875 4.140625 -1.6875 4.140625 -2.03125 C 4.140625 -3.0625 3.5625 -3.921875 2.40625 -3.921875 C 1.328125 -3.921875 0.46875 -3.015625 0.46875 -1.953125 C 0.46875 -0.84375 1.40625 0.046875 2.546875 0.046875 C 3.75 0.046875 4.140625 -0.765625 4.140625 -0.96875 Z M 3.46875 -2.265625 L 1.171875 -2.265625 C 1.34375 -3 1.90625 -3.34375 2.40625 -3.34375 C 3.03125 -3.34375 3.40625 -2.9375 3.46875 -2.265625 Z M 3.46875 -2.265625 "/>
</symbol>
<symbol overflow="visible" id="glyph0-7">
<path style="stroke:none;" d="M 4.203125 -0.28125 C 4.203125 -0.578125 3.984375 -0.578125 3.828125 -0.578125 L 2.671875 -0.578125 L 2.671875 -5.078125 C 2.671875 -5.375 2.59375 -5.453125 2.296875 -5.453125 L 0.84375 -5.453125 C 0.71875 -5.453125 0.46875 -5.453125 0.46875 -5.171875 C 0.46875 -4.875 0.703125 -4.875 0.84375 -4.875 L 2.015625 -4.875 L 2.015625 -0.578125 L 0.84375 -0.578125 C 0.71875 -0.578125 0.46875 -0.578125 0.46875 -0.296875 C 0.46875 0 0.703125 0 0.84375 0 L 3.828125 0 C 3.96875 0 4.203125 0 4.203125 -0.28125 Z M 4.203125 -0.28125 "/>
</symbol>
<symbol overflow="visible" id="glyph0-8">
<path style="stroke:none;" d="M 4.609375 -0.28125 C 4.609375 -0.578125 4.375 -0.578125 4.234375 -0.578125 L 3.84375 -0.578125 L 3.84375 -2.609375 C 3.84375 -3.5 3.40625 -3.890625 2.671875 -3.890625 C 2.25 -3.890625 1.84375 -3.75 1.5 -3.453125 C 1.5 -3.703125 1.5 -3.859375 1.125 -3.859375 L 0.453125 -3.859375 C 0.328125 -3.859375 0.078125 -3.859375 0.078125 -3.5625 C 0.078125 -3.265625 0.3125 -3.265625 0.453125 -3.265625 L 0.84375 -3.265625 L 0.84375 -0.578125 L 0.453125 -0.578125 C 0.328125 -0.578125 0.078125 -0.578125 0.078125 -0.296875 C 0.078125 0 0.3125 0 0.453125 0 L 1.890625 0 C 2.015625 0 2.265625 0 2.265625 -0.28125 C 2.265625 -0.578125 2.03125 -0.578125 1.890625 -0.578125 L 1.5 -0.578125 L 1.5 -2.125 C 1.5 -3 2.1875 -3.3125 2.625 -3.3125 C 3.0625 -3.3125 3.1875 -3.09375 3.1875 -2.578125 L 3.1875 -0.578125 L 2.890625 -0.578125 C 2.765625 -0.578125 2.515625 -0.578125 2.515625 -0.296875 C 2.515625 0 2.765625 0 2.890625 0 L 4.234375 0 C 4.359375 0 4.609375 0 4.609375 -0.28125 Z M 4.609375 -0.28125 "/>
</symbol>
<symbol overflow="visible" id="glyph0-9">
<path style="stroke:none;" d="M 3.90625 -4.953125 C 3.90625 -5.5 3.171875 -5.5 3.03125 -5.5 C 2.34375 -5.5 1.625 -5.125 1.625 -4.296875 L 1.625 -3.859375 L 0.765625 -3.859375 C 0.625 -3.859375 0.390625 -3.859375 0.390625 -3.5625 C 0.390625 -3.265625 0.625 -3.265625 0.765625 -3.265625 L 1.625 -3.265625 L 1.625 -0.578125 L 0.71875 -0.578125 C 0.59375 -0.578125 0.34375 -0.578125 0.34375 -0.296875 C 0.34375 0 0.59375 0 0.71875 0 L 3.1875 0 C 3.3125 0 3.578125 0 3.578125 -0.28125 C 3.578125 -0.578125 3.328125 -0.578125 3.1875 -0.578125 L 2.28125 -0.578125 L 2.28125 -3.265625 L 3.328125 -3.265625 C 3.453125 -3.265625 3.703125 -3.265625 3.703125 -3.5625 C 3.703125 -3.859375 3.46875 -3.859375 3.328125 -3.859375 L 2.28125 -3.859375 L 2.28125 -4.265625 C 2.28125 -4.921875 2.828125 -4.921875 3.09375 -4.921875 C 3.125 -4.6875 3.3125 -4.546875 3.5 -4.546875 C 3.671875 -4.546875 3.90625 -4.671875 3.90625 -4.953125 Z M 3.90625 -4.953125 "/>
</symbol>
<symbol overflow="visible" id="glyph0-10">
<path style="stroke:none;" d="M 4.359375 -3.328125 C 4.359375 -3.5 4.25 -3.890625 3.5 -3.890625 C 3 -3.890625 2.4375 -3.6875 2 -3.203125 L 2 -3.484375 C 2 -3.765625 1.9375 -3.859375 1.625 -3.859375 L 0.625 -3.859375 C 0.484375 -3.859375 0.234375 -3.859375 0.234375 -3.5625 C 0.234375 -3.265625 0.484375 -3.265625 0.625 -3.265625 L 1.34375 -3.265625 L 1.34375 -0.578125 L 0.625 -0.578125 C 0.484375 -0.578125 0.234375 -0.578125 0.234375 -0.296875 C 0.234375 0 0.484375 0 0.625 0 L 3 0 C 3.125 0 3.375 0 3.375 -0.28125 C 3.375 -0.578125 3.125 -0.578125 3 -0.578125 L 2 -0.578125 L 2 -1.640625 C 2 -2.546875 2.59375 -3.3125 3.5625 -3.3125 C 3.59375 -2.984375 3.84375 -2.921875 3.953125 -2.921875 C 4.171875 -2.921875 4.359375 -3.078125 4.359375 -3.328125 Z M 4.359375 -3.328125 "/>
</symbol>
<symbol overflow="visible" id="glyph0-11">
<path style="stroke:none;" d="M 4.640625 -0.296875 C 4.640625 -0.578125 4.390625 -0.578125 4.25 -0.578125 C 4.125 -0.578125 3.9375 -0.578125 3.765625 -0.640625 L 3.765625 -2.53125 C 3.765625 -3.21875 3.21875 -3.921875 1.96875 -3.921875 C 1.5625 -3.921875 0.65625 -3.921875 0.65625 -3.25 C 0.65625 -3 0.859375 -2.828125 1.078125 -2.828125 C 1.21875 -2.828125 1.5 -2.890625 1.5 -3.3125 C 1.75 -3.34375 1.90625 -3.34375 1.984375 -3.34375 C 2.6875 -3.34375 3.09375 -3.046875 3.09375 -2.5 C 1.609375 -2.484375 0.421875 -2.0625 0.421875 -1.1875 C 0.421875 -0.515625 1.046875 0.046875 1.90625 0.046875 C 2.015625 0.046875 2.703125 0.046875 3.1875 -0.296875 C 3.390625 0 3.875 0 4.171875 0 C 4.421875 0 4.640625 0 4.640625 -0.296875 Z M 3.09375 -1.265625 C 3.09375 -1.046875 3.09375 -0.859375 2.75 -0.6875 C 2.421875 -0.53125 2.015625 -0.53125 1.984375 -0.53125 C 1.453125 -0.53125 1.09375 -0.828125 1.09375 -1.1875 C 1.09375 -1.625 2 -1.9375 3.09375 -1.9375 Z M 3.09375 -1.265625 "/>
</symbol>
<symbol overflow="visible" id="glyph0-12">
<path style="stroke:none;" d="M 4.609375 -0.28125 C 4.609375 -0.578125 4.421875 -0.578125 4.109375 -0.578125 L 4.109375 -2.703125 C 4.109375 -2.890625 4.109375 -3.890625 3.3125 -3.890625 C 3.21875 -3.890625 2.78125 -3.890625 2.421875 -3.453125 C 2.40625 -3.484375 2.234375 -3.890625 1.75 -3.890625 C 1.546875 -3.890625 1.25 -3.828125 0.984375 -3.59375 C 0.953125 -3.859375 0.78125 -3.859375 0.609375 -3.859375 L 0.328125 -3.859375 C 0.1875 -3.859375 -0.046875 -3.859375 -0.046875 -3.5625 C -0.046875 -3.265625 0.140625 -3.265625 0.453125 -3.265625 L 0.453125 -0.578125 C 0.140625 -0.578125 -0.046875 -0.578125 -0.046875 -0.28125 C -0.046875 0 0.1875 0 0.328125 0 L 1.125 0 C 1.265625 0 1.5 0 1.5 -0.28125 C 1.5 -0.578125 1.3125 -0.578125 0.984375 -0.578125 L 0.984375 -2.15625 C 0.984375 -2.90625 1.359375 -3.3125 1.71875 -3.3125 C 1.890625 -3.3125 2.015625 -3.1875 2.015625 -2.640625 L 2.015625 -0.578125 C 1.9375 -0.578125 1.671875 -0.578125 1.671875 -0.296875 C 1.671875 0 1.90625 0 2.046875 0 L 2.6875 0 C 2.8125 0 3.0625 0 3.0625 -0.28125 C 3.0625 -0.578125 2.859375 -0.578125 2.546875 -0.578125 L 2.546875 -2.15625 C 2.546875 -2.90625 2.90625 -3.3125 3.265625 -3.3125 C 3.453125 -3.3125 3.5625 -3.1875 3.5625 -2.640625 L 3.5625 -0.578125 C 3.484375 -0.578125 3.21875 -0.578125 3.21875 -0.296875 C 3.21875 0 3.46875 0 3.609375 0 L 4.234375 0 C 4.375 0 4.609375 0 4.609375 -0.28125 Z M 4.609375 -0.28125 "/>
</symbol>
<symbol overflow="visible" id="glyph0-13">
<path style="stroke:none;" d="M 4.546875 -3.5625 C 4.546875 -3.859375 4.296875 -3.859375 4.171875 -3.859375 L 3.078125 -3.859375 C 2.953125 -3.859375 2.703125 -3.859375 2.703125 -3.5625 C 2.703125 -3.265625 2.953125 -3.265625 3.078125 -3.265625 L 3.53125 -3.265625 L 3.125 -0.6875 L 3.109375 -0.6875 C 3.078125 -0.921875 2.9375 -1.4375 2.859375 -1.703125 C 2.71875 -2.171875 2.6875 -2.3125 2.359375 -2.3125 C 2.03125 -2.3125 2 -2.1875 1.859375 -1.65625 C 1.765625 -1.328125 1.640625 -0.90625 1.609375 -0.6875 L 1.59375 -0.6875 L 1.15625 -3.265625 L 1.59375 -3.265625 C 1.71875 -3.265625 1.984375 -3.265625 1.984375 -3.5625 C 1.984375 -3.859375 1.734375 -3.859375 1.59375 -3.859375 L 0.515625 -3.859375 C 0.390625 -3.859375 0.140625 -3.859375 0.140625 -3.5625 C 0.140625 -3.265625 0.359375 -3.265625 0.609375 -3.265625 L 1.125 -0.296875 C 1.1875 0.046875 1.390625 0.046875 1.5625 0.046875 C 1.953125 0.046875 1.96875 -0.046875 2.125 -0.578125 C 2.328125 -1.3125 2.34375 -1.484375 2.34375 -1.609375 L 2.359375 -1.609375 C 2.390625 -1.359375 2.53125 -0.796875 2.59375 -0.609375 C 2.75 -0.078125 2.765625 0.046875 3.140625 0.046875 C 3.296875 0.046875 3.5 0.046875 3.5625 -0.296875 L 4.078125 -3.265625 C 4.328125 -3.265625 4.546875 -3.265625 4.546875 -3.5625 Z M 4.546875 -3.5625 "/>
</symbol>
<symbol overflow="visible" id="glyph0-14">
<path style="stroke:none;" d="M 4.1875 -1.9375 C 4.1875 -3.03125 3.359375 -3.921875 2.34375 -3.921875 C 1.328125 -3.921875 0.484375 -3.03125 0.484375 -1.9375 C 0.484375 -0.828125 1.34375 0.046875 2.34375 0.046875 C 3.34375 0.046875 4.1875 -0.828125 4.1875 -1.9375 Z M 3.53125 -2 C 3.53125 -1.1875 3 -0.53125 2.34375 -0.53125 C 1.6875 -0.53125 1.15625 -1.1875 1.15625 -2 C 1.15625 -2.78125 1.71875 -3.34375 2.34375 -3.34375 C 2.96875 -3.34375 3.53125 -2.78125 3.53125 -2 Z M 3.53125 -2 "/>
</symbol>
<symbol overflow="visible" id="glyph0-15">
<path style="stroke:none;" d="M 4.53125 -0.28125 C 4.53125 -0.578125 4.296875 -0.578125 4.15625 -0.578125 L 3.875 -0.578125 L 2.578125 -2.265625 L 3.640625 -3.265625 L 3.953125 -3.265625 C 4.09375 -3.265625 4.328125 -3.265625 4.328125 -3.5625 C 4.328125 -3.859375 4.109375 -3.859375 3.953125 -3.859375 L 2.5625 -3.859375 C 2.4375 -3.859375 2.1875 -3.859375 2.1875 -3.5625 C 2.1875 -3.265625 2.421875 -3.265625 2.5625 -3.265625 L 2.859375 -3.265625 L 1.5 -2 L 1.5 -5.078125 C 1.5 -5.375 1.4375 -5.453125 1.125 -5.453125 L 0.53125 -5.453125 C 0.40625 -5.453125 0.15625 -5.453125 0.15625 -5.171875 C 0.15625 -4.875 0.40625 -4.875 0.53125 -4.875 L 0.96875 -4.875 L 0.96875 -0.578125 L 0.53125 -0.578125 C 0.40625 -0.578125 0.15625 -0.578125 0.15625 -0.296875 C 0.15625 0 0.40625 0 0.53125 0 L 1.9375 0 C 2.0625 0 2.3125 0 2.3125 -0.28125 C 2.3125 -0.578125 2.0625 -0.578125 1.9375 -0.578125 L 1.5 -0.578125 L 1.5 -1.25 L 2.1875 -1.90625 L 3.203125 -0.578125 C 2.90625 -0.578125 2.703125 -0.578125 2.703125 -0.28125 C 2.703125 0 2.953125 0 3.078125 0 L 4.15625 0 C 4.296875 0 4.53125 0 4.53125 -0.28125 Z M 4.53125 -0.28125 "/>
</symbol>
<symbol overflow="visible" id="glyph0-16">
<path style="stroke:none;" d="M 4.375 -1.9375 C 4.375 -3 3.609375 -3.890625 2.609375 -3.890625 C 2.1875 -3.890625 1.8125 -3.75 1.5 -3.484375 L 1.5 -5.078125 C 1.5 -5.375 1.4375 -5.453125 1.125 -5.453125 L 0.453125 -5.453125 C 0.328125 -5.453125 0.078125 -5.453125 0.078125 -5.171875 C 0.078125 -4.875 0.3125 -4.875 0.453125 -4.875 L 0.84375 -4.875 L 0.84375 -0.390625 C 0.84375 -0.203125 0.84375 0 1.171875 0 C 1.5 0 1.5 -0.203125 1.5 -0.390625 C 1.78125 -0.109375 2.125 0.046875 2.515625 0.046875 C 3.515625 0.046875 4.375 -0.796875 4.375 -1.9375 Z M 3.71875 -1.9375 C 3.71875 -1.140625 3.140625 -0.53125 2.484375 -0.53125 C 1.84375 -0.53125 1.5 -1.265625 1.5 -1.71875 L 1.5 -2.34375 C 1.5 -2.875 2.03125 -3.3125 2.578125 -3.3125 C 3.1875 -3.3125 3.71875 -2.703125 3.71875 -1.9375 Z M 3.71875 -1.9375 "/>
</symbol>
<symbol overflow="visible" id="glyph0-17">
<path style="stroke:none;" d="M 4.609375 -0.28125 C 4.609375 -0.578125 4.375 -0.578125 4.234375 -0.578125 L 3.84375 -0.578125 L 3.84375 -2.609375 C 3.84375 -3.5 3.40625 -3.890625 2.671875 -3.890625 C 2.25 -3.890625 1.84375 -3.75 1.5 -3.453125 L 1.5 -5.078125 C 1.5 -5.375 1.4375 -5.453125 1.125 -5.453125 L 0.453125 -5.453125 C 0.328125 -5.453125 0.078125 -5.453125 0.078125 -5.171875 C 0.078125 -4.875 0.3125 -4.875 0.453125 -4.875 L 0.84375 -4.875 L 0.84375 -0.578125 L 0.453125 -0.578125 C 0.328125 -0.578125 0.078125 -0.578125 0.078125 -0.296875 C 0.078125 0 0.3125 0 0.453125 0 L 1.890625 0 C 2.015625 0 2.265625 0 2.265625 -0.28125 C 2.265625 -0.578125 2.03125 -0.578125 1.890625 -0.578125 L 1.5 -0.578125 L 1.5 -2.125 C 1.5 -3 2.1875 -3.3125 2.625 -3.3125 C 3.0625 -3.3125 3.1875 -3.09375 3.1875 -2.578125 L 3.1875 -0.578125 L 2.890625 -0.578125 C 2.765625 -0.578125 2.515625 -0.578125 2.515625 -0.296875 C 2.515625 0 2.765625 0 2.890625 0 L 4.234375 0 C 4.359375 0 4.609375 0 4.609375 -0.28125 Z M 4.609375 -0.28125 "/>
</symbol>
<symbol overflow="visible" id="glyph0-18">
<path style="stroke:none;" d="M 4.109375 -1.125 C 4.109375 -1.5625 3.828125 -1.84375 3.609375 -1.96875 C 3.25 -2.203125 3.03125 -2.25 2.1875 -2.375 C 1.8125 -2.4375 1.21875 -2.53125 1.21875 -2.859375 C 1.21875 -3.09375 1.515625 -3.34375 2.328125 -3.34375 C 3.140625 -3.34375 3.15625 -3.03125 3.171875 -2.84375 C 3.1875 -2.59375 3.4375 -2.59375 3.5 -2.59375 C 3.828125 -2.59375 3.828125 -2.796875 3.828125 -2.96875 L 3.828125 -3.546875 C 3.828125 -3.6875 3.828125 -3.921875 3.546875 -3.921875 C 3.34375 -3.921875 3.296875 -3.8125 3.265625 -3.75 C 2.9375 -3.921875 2.5 -3.921875 2.34375 -3.921875 C 0.78125 -3.921875 0.640625 -3.109375 0.640625 -2.859375 C 0.640625 -2.390625 1 -2.171875 1.109375 -2.09375 C 1.40625 -1.90625 1.65625 -1.875 2.578125 -1.71875 C 2.8125 -1.6875 3.515625 -1.578125 3.515625 -1.125 C 3.515625 -0.84375 3.265625 -0.53125 2.40625 -0.53125 C 1.859375 -0.53125 1.5 -0.71875 1.328125 -1.25 C 1.265625 -1.4375 1.21875 -1.53125 0.96875 -1.53125 C 0.640625 -1.53125 0.640625 -1.328125 0.640625 -1.140625 L 0.640625 -0.328125 C 0.640625 -0.203125 0.640625 0.046875 0.921875 0.046875 C 1.0625 0.046875 1.1875 -0.015625 1.265625 -0.265625 C 1.703125 0.046875 2.21875 0.046875 2.40625 0.046875 C 3.890625 0.046875 4.109375 -0.78125 4.109375 -1.125 Z M 4.109375 -1.125 "/>
</symbol>
<symbol overflow="visible" id="glyph0-19">
<path style="stroke:none;" d="M 4.015625 -1.15625 C 4.015625 -1.46875 3.78125 -1.46875 3.6875 -1.46875 C 3.546875 -1.46875 3.359375 -1.453125 3.359375 -1.15625 C 3.328125 -0.734375 2.96875 -0.53125 2.671875 -0.53125 C 2.015625 -0.53125 2.015625 -1.015625 2.015625 -1.234375 L 2.015625 -3.265625 L 3.4375 -3.265625 C 3.5625 -3.265625 3.8125 -3.265625 3.8125 -3.5625 C 3.8125 -3.859375 3.5625 -3.859375 3.4375 -3.859375 L 2.015625 -3.859375 L 2.015625 -4.578125 C 2.015625 -4.75 2.015625 -4.953125 1.6875 -4.953125 C 1.34375 -4.953125 1.34375 -4.75 1.34375 -4.5625 L 1.34375 -3.859375 L 0.609375 -3.859375 C 0.46875 -3.859375 0.21875 -3.859375 0.21875 -3.5625 C 0.21875 -3.265625 0.46875 -3.265625 0.59375 -3.265625 L 1.34375 -3.265625 L 1.34375 -1.203125 C 1.34375 -0.265625 2 0.046875 2.625 0.046875 C 3.390625 0.046875 4.015625 -0.484375 4.015625 -1.15625 Z M 4.015625 -1.15625 "/>
</symbol>
<symbol overflow="visible" id="glyph1-0">
<path style="stroke:none;" d="M 0.390625 1.40625 L 0.390625 -5.609375 L 4.375 -5.609375 L 4.375 1.40625 Z M 0.84375 0.96875 L 3.9375 0.96875 L 3.9375 -5.15625 L 0.84375 -5.15625 Z M 0.84375 0.96875 "/>
</symbol>
<symbol overflow="visible" id="glyph1-1">
<path style="stroke:none;" d="M 0.671875 -1.71875 L 0.671875 -4.34375 L 1.390625 -4.34375 L 1.390625 -1.75 C 1.390625 -1.332031 1.46875 -1.019531 1.625 -0.8125 C 1.789062 -0.613281 2.035156 -0.515625 2.359375 -0.515625 C 2.742188 -0.515625 3.046875 -0.632812 3.265625 -0.875 C 3.492188 -1.125 3.609375 -1.460938 3.609375 -1.890625 L 3.609375 -4.34375 L 4.3125 -4.34375 L 4.3125 0 L 3.609375 0 L 3.609375 -0.671875 C 3.429688 -0.398438 3.226562 -0.203125 3 -0.078125 C 2.769531 0.0429688 2.503906 0.109375 2.203125 0.109375 C 1.703125 0.109375 1.320312 -0.0390625 1.0625 -0.34375 C 0.800781 -0.65625 0.671875 -1.113281 0.671875 -1.71875 Z M 2.46875 -4.453125 Z M 2.46875 -4.453125 "/>
</symbol>
<symbol overflow="visible" id="glyph1-2">
<path style="stroke:none;" d="M 4.140625 -3.515625 C 4.316406 -3.835938 4.53125 -4.070312 4.78125 -4.21875 C 5.03125 -4.375 5.320312 -4.453125 5.65625 -4.453125 C 6.101562 -4.453125 6.453125 -4.289062 6.703125 -3.96875 C 6.953125 -3.65625 7.078125 -3.207031 7.078125 -2.625 L 7.078125 0 L 6.359375 0 L 6.359375 -2.609375 C 6.359375 -3.023438 6.28125 -3.332031 6.125 -3.53125 C 5.976562 -3.726562 5.753906 -3.828125 5.453125 -3.828125 C 5.085938 -3.828125 4.796875 -3.703125 4.578125 -3.453125 C 4.359375 -3.210938 4.25 -2.878906 4.25 -2.453125 L 4.25 0 L 3.53125 0 L 3.53125 -2.609375 C 3.53125 -3.023438 3.457031 -3.332031 3.3125 -3.53125 C 3.164062 -3.726562 2.941406 -3.828125 2.640625 -3.828125 C 2.265625 -3.828125 1.96875 -3.703125 1.75 -3.453125 C 1.539062 -3.210938 1.4375 -2.878906 1.4375 -2.453125 L 1.4375 0 L 0.71875 0 L 0.71875 -4.34375 L 1.4375 -4.34375 L 1.4375 -3.671875 C 1.601562 -3.941406 1.800781 -4.140625 2.03125 -4.265625 C 2.257812 -4.390625 2.53125 -4.453125 2.84375 -4.453125 C 3.15625 -4.453125 3.421875 -4.367188 3.640625 -4.203125 C 3.867188 -4.046875 4.035156 -3.816406 4.140625 -3.515625 Z M 4.140625 -3.515625 "/>
</symbol>
<symbol overflow="visible" id="glyph1-3">
<path style="stroke:none;" d="M 3.875 -2.171875 C 3.875 -2.691406 3.765625 -3.101562 3.546875 -3.40625 C 3.328125 -3.707031 3.03125 -3.859375 2.65625 -3.859375 C 2.28125 -3.859375 1.984375 -3.707031 1.765625 -3.40625 C 1.546875 -3.101562 1.4375 -2.691406 1.4375 -2.171875 C 1.4375 -1.640625 1.546875 -1.222656 1.765625 -0.921875 C 1.984375 -0.628906 2.28125 -0.484375 2.65625 -0.484375 C 3.03125 -0.484375 3.328125 -0.628906 3.546875 -0.921875 C 3.765625 -1.222656 3.875 -1.640625 3.875 -2.171875 Z M 1.4375 -3.6875 C 1.59375 -3.945312 1.785156 -4.140625 2.015625 -4.265625 C 2.242188 -4.390625 2.515625 -4.453125 2.828125 -4.453125 C 3.359375 -4.453125 3.785156 -4.242188 4.109375 -3.828125 C 4.441406 -3.410156 4.609375 -2.859375 4.609375 -2.171875 C 4.609375 -1.484375 4.441406 -0.929688 4.109375 -0.515625 C 3.785156 -0.0976562 3.359375 0.109375 2.828125 0.109375 C 2.515625 0.109375 2.242188 0.0429688 2.015625 -0.078125 C 1.785156 -0.203125 1.59375 -0.394531 1.4375 -0.65625 L 1.4375 0 L 0.71875 0 L 0.71875 -6.046875 L 1.4375 -6.046875 Z M 1.4375 -3.6875 "/>
</symbol>
<symbol overflow="visible" id="glyph1-4">
<path style="stroke:none;" d="M 3.265625 -3.6875 C 3.191406 -3.726562 3.101562 -3.757812 3 -3.78125 C 2.90625 -3.800781 2.800781 -3.8125 2.6875 -3.8125 C 2.289062 -3.8125 1.984375 -3.679688 1.765625 -3.421875 C 1.546875 -3.160156 1.4375 -2.785156 1.4375 -2.296875 L 1.4375 0 L 0.71875 0 L 0.71875 -4.34375 L 1.4375 -4.34375 L 1.4375 -3.671875 C 1.59375 -3.929688 1.789062 -4.125 2.03125 -4.25 C 2.269531 -4.382812 2.5625 -4.453125 2.90625 -4.453125 C 2.957031 -4.453125 3.007812 -4.445312 3.0625 -4.4375 C 3.125 -4.4375 3.191406 -4.429688 3.265625 -4.421875 Z M 3.265625 -3.6875 "/>
</symbol>
<symbol overflow="visible" id="glyph1-5">
<path style="stroke:none;" d="M 4.46875 -2.359375 L 4.46875 -2 L 1.1875 -2 C 1.21875 -1.507812 1.363281 -1.132812 1.625 -0.875 C 1.894531 -0.625 2.265625 -0.5 2.734375 -0.5 C 3.015625 -0.5 3.28125 -0.53125 3.53125 -0.59375 C 3.789062 -0.65625 4.046875 -0.753906 4.296875 -0.890625 L 4.296875 -0.21875 C 4.046875 -0.113281 3.785156 -0.0351562 3.515625 0.015625 C 3.242188 0.078125 2.96875 0.109375 2.6875 0.109375 C 2 0.109375 1.453125 -0.0859375 1.046875 -0.484375 C 0.640625 -0.890625 0.4375 -1.4375 0.4375 -2.125 C 0.4375 -2.84375 0.628906 -3.410156 1.015625 -3.828125 C 1.398438 -4.242188 1.921875 -4.453125 2.578125 -4.453125 C 3.160156 -4.453125 3.617188 -4.265625 3.953125 -3.890625 C 4.296875 -3.515625 4.46875 -3.003906 4.46875 -2.359375 Z M 3.75 -2.5625 C 3.75 -2.957031 3.640625 -3.269531 3.421875 -3.5 C 3.210938 -3.726562 2.929688 -3.84375 2.578125 -3.84375 C 2.179688 -3.84375 1.863281 -3.726562 1.625 -3.5 C 1.382812 -3.28125 1.242188 -2.96875 1.203125 -2.5625 Z M 3.75 -2.5625 "/>
</symbol>
<symbol overflow="visible" id="glyph1-6">
<path style="stroke:none;" d="M 0.75 -6.046875 L 1.46875 -6.046875 L 1.46875 0 L 0.75 0 Z M 0.75 -6.046875 "/>
</symbol>
<symbol overflow="visible" id="glyph1-7">
<path style="stroke:none;" d="M 2.71875 -2.1875 C 2.144531 -2.1875 1.742188 -2.117188 1.515625 -1.984375 C 1.296875 -1.859375 1.1875 -1.632812 1.1875 -1.3125 C 1.1875 -1.0625 1.269531 -0.859375 1.4375 -0.703125 C 1.601562 -0.554688 1.832031 -0.484375 2.125 -0.484375 C 2.519531 -0.484375 2.835938 -0.625 3.078125 -0.90625 C 3.316406 -1.1875 3.4375 -1.5625 3.4375 -2.03125 L 3.4375 -2.1875 Z M 4.15625 -2.484375 L 4.15625 0 L 3.4375 0 L 3.4375 -0.65625 C 3.269531 -0.394531 3.066406 -0.203125 2.828125 -0.078125 C 2.585938 0.0429688 2.289062 0.109375 1.9375 0.109375 C 1.488281 0.109375 1.132812 -0.015625 0.875 -0.265625 C 0.613281 -0.515625 0.484375 -0.847656 0.484375 -1.265625 C 0.484375 -1.753906 0.644531 -2.125 0.96875 -2.375 C 1.289062 -2.625 1.78125 -2.75 2.4375 -2.75 L 3.4375 -2.75 L 3.4375 -2.8125 C 3.4375 -3.144531 3.328125 -3.398438 3.109375 -3.578125 C 2.890625 -3.753906 2.585938 -3.84375 2.203125 -3.84375 C 1.953125 -3.84375 1.707031 -3.8125 1.46875 -3.75 C 1.238281 -3.695312 1.015625 -3.609375 0.796875 -3.484375 L 0.796875 -4.15625 C 1.054688 -4.25 1.304688 -4.320312 1.546875 -4.375 C 1.796875 -4.425781 2.039062 -4.453125 2.28125 -4.453125 C 2.90625 -4.453125 3.375 -4.285156 3.6875 -3.953125 C 4 -3.628906 4.15625 -3.140625 4.15625 -2.484375 Z M 4.15625 -2.484375 "/>
</symbol>
<symbol overflow="visible" id="glyph1-8">
<path style="stroke:none;" d="M 1.4375 -0.65625 L 1.4375 1.65625 L 0.71875 1.65625 L 0.71875 -4.34375 L 1.4375 -4.34375 L 1.4375 -3.6875 C 1.59375 -3.945312 1.785156 -4.140625 2.015625 -4.265625 C 2.242188 -4.390625 2.515625 -4.453125 2.828125 -4.453125 C 3.359375 -4.453125 3.785156 -4.242188 4.109375 -3.828125 C 4.441406 -3.410156 4.609375 -2.859375 4.609375 -2.171875 C 4.609375 -1.484375 4.441406 -0.929688 4.109375 -0.515625 C 3.785156 -0.0976562 3.359375 0.109375 2.828125 0.109375 C 2.515625 0.109375 2.242188 0.0429688 2.015625 -0.078125 C 1.785156 -0.203125 1.59375 -0.394531 1.4375 -0.65625 Z M 3.875 -2.171875 C 3.875 -2.691406 3.765625 -3.101562 3.546875 -3.40625 C 3.328125 -3.707031 3.03125 -3.859375 2.65625 -3.859375 C 2.28125 -3.859375 1.984375 -3.707031 1.765625 -3.40625 C 1.546875 -3.101562 1.4375 -2.691406 1.4375 -2.171875 C 1.4375 -1.640625 1.546875 -1.222656 1.765625 -0.921875 C 1.984375 -0.628906 2.28125 -0.484375 2.65625 -0.484375 C 3.03125 -0.484375 3.328125 -0.628906 3.546875 -0.921875 C 3.765625 -1.222656 3.875 -1.640625 3.875 -2.171875 Z M 3.875 -2.171875 "/>
</symbol>
<symbol overflow="visible" id="glyph1-9">
<path style="stroke:none;" d="M 3.875 -4.1875 L 3.875 -3.515625 C 3.675781 -3.628906 3.472656 -3.710938 3.265625 -3.765625 C 3.066406 -3.816406 2.863281 -3.84375 2.65625 -3.84375 C 2.195312 -3.84375 1.835938 -3.695312 1.578125 -3.40625 C 1.316406 -3.113281 1.1875 -2.703125 1.1875 -2.171875 C 1.1875 -1.640625 1.316406 -1.226562 1.578125 -0.9375 C 1.835938 -0.644531 2.195312 -0.5 2.65625 -0.5 C 2.863281 -0.5 3.066406 -0.523438 3.265625 -0.578125 C 3.472656 -0.628906 3.675781 -0.710938 3.875 -0.828125 L 3.875 -0.171875 C 3.675781 -0.078125 3.46875 -0.0078125 3.25 0.03125 C 3.039062 0.0820312 2.816406 0.109375 2.578125 0.109375 C 1.921875 0.109375 1.398438 -0.09375 1.015625 -0.5 C 0.628906 -0.914062 0.4375 -1.472656 0.4375 -2.171875 C 0.4375 -2.878906 0.628906 -3.4375 1.015625 -3.84375 C 1.410156 -4.25 1.945312 -4.453125 2.625 -4.453125 C 2.84375 -4.453125 3.054688 -4.425781 3.265625 -4.375 C 3.472656 -4.332031 3.675781 -4.269531 3.875 -4.1875 Z M 3.875 -4.1875 "/>
</symbol>
<symbol overflow="visible" id="glyph1-10">
<path style="stroke:none;" d="M 0.71875 -6.046875 L 1.4375 -6.046875 L 1.4375 -2.46875 L 3.578125 -4.34375 L 4.484375 -4.34375 L 2.171875 -2.3125 L 4.578125 0 L 3.65625 0 L 1.4375 -2.125 L 1.4375 0 L 0.71875 0 Z M 0.71875 -6.046875 "/>
</symbol>
<symbol overflow="visible" id="glyph1-11">
<path style="stroke:none;" d="M 3.609375 -2.21875 C 3.609375 -2.738281 3.5 -3.140625 3.28125 -3.421875 C 3.070312 -3.710938 2.773438 -3.859375 2.390625 -3.859375 C 2.003906 -3.859375 1.703125 -3.710938 1.484375 -3.421875 C 1.273438 -3.140625 1.171875 -2.738281 1.171875 -2.21875 C 1.171875 -1.707031 1.273438 -1.304688 1.484375 -1.015625 C 1.703125 -0.734375 2.003906 -0.59375 2.390625 -0.59375 C 2.773438 -0.59375 3.070312 -0.734375 3.28125 -1.015625 C 3.5 -1.304688 3.609375 -1.707031 3.609375 -2.21875 Z M 4.328125 -0.546875 C 4.328125 0.199219 4.160156 0.753906 3.828125 1.109375 C 3.503906 1.472656 3.003906 1.65625 2.328125 1.65625 C 2.078125 1.65625 1.835938 1.632812 1.609375 1.59375 C 1.390625 1.5625 1.175781 1.503906 0.96875 1.421875 L 0.96875 0.734375 C 1.175781 0.847656 1.378906 0.929688 1.578125 0.984375 C 1.785156 1.035156 1.992188 1.0625 2.203125 1.0625 C 2.671875 1.0625 3.019531 0.9375 3.25 0.6875 C 3.488281 0.445312 3.609375 0.0820312 3.609375 -0.40625 L 3.609375 -0.765625 C 3.460938 -0.503906 3.273438 -0.3125 3.046875 -0.1875 C 2.816406 -0.0625 2.539062 0 2.21875 0 C 1.6875 0 1.253906 -0.203125 0.921875 -0.609375 C 0.597656 -1.015625 0.4375 -1.550781 0.4375 -2.21875 C 0.4375 -2.894531 0.597656 -3.4375 0.921875 -3.84375 C 1.253906 -4.25 1.6875 -4.453125 2.21875 -4.453125 C 2.539062 -4.453125 2.816406 -4.390625 3.046875 -4.265625 C 3.273438 -4.140625 3.460938 -3.945312 3.609375 -3.6875 L 3.609375 -4.34375 L 4.328125 -4.34375 Z M 4.328125 -0.546875 "/>
</symbol>
<symbol overflow="visible" id="glyph1-12">
<path style="stroke:none;" d="M 2.953125 -6.046875 L 2.953125 -5.453125 L 2.265625 -5.453125 C 2.015625 -5.453125 1.835938 -5.398438 1.734375 -5.296875 C 1.628906 -5.191406 1.578125 -5.003906 1.578125 -4.734375 L 1.578125 -4.34375 L 2.765625 -4.34375 L 2.765625 -3.796875 L 1.578125 -3.796875 L 1.578125 0 L 0.859375 0 L 0.859375 -3.796875 L 0.1875 -3.796875 L 0.1875 -4.34375 L 0.859375 -4.34375 L 0.859375 -4.65625 C 0.859375 -5.132812 0.972656 -5.484375 1.203125 -5.703125 C 1.429688 -5.929688 1.789062 -6.046875 2.28125 -6.046875 Z M 2.953125 -6.046875 "/>
</symbol>
<symbol overflow="visible" id="glyph1-13">
<path style="stroke:none;" d="M 0.328125 -4.34375 L 1.046875 -4.34375 L 1.9375 -0.953125 L 2.828125 -4.34375 L 3.671875 -4.34375 L 4.5625 -0.953125 L 5.453125 -4.34375 L 6.171875 -4.34375 L 5.03125 0 L 4.1875 0 L 3.25 -3.5625 L 2.3125 0 L 1.46875 0 Z M 0.328125 -4.34375 "/>
</symbol>
<symbol overflow="visible" id="glyph1-14">
<path style="stroke:none;" d="M 2.4375 -3.84375 C 2.050781 -3.84375 1.742188 -3.691406 1.515625 -3.390625 C 1.296875 -3.097656 1.1875 -2.691406 1.1875 -2.171875 C 1.1875 -1.648438 1.296875 -1.238281 1.515625 -0.9375 C 1.742188 -0.644531 2.050781 -0.5 2.4375 -0.5 C 2.8125 -0.5 3.109375 -0.644531 3.328125 -0.9375 C 3.554688 -1.238281 3.671875 -1.648438 3.671875 -2.171875 C 3.671875 -2.679688 3.554688 -3.085938 3.328125 -3.390625 C 3.109375 -3.691406 2.8125 -3.84375 2.4375 -3.84375 Z M 2.4375 -4.453125 C 3.050781 -4.453125 3.535156 -4.25 3.890625 -3.84375 C 4.253906 -3.445312 4.4375 -2.890625 4.4375 -2.171875 C 4.4375 -1.460938 4.253906 -0.90625 3.890625 -0.5 C 3.535156 -0.09375 3.050781 0.109375 2.4375 0.109375 C 1.8125 0.109375 1.320312 -0.09375 0.96875 -0.5 C 0.613281 -0.90625 0.4375 -1.460938 0.4375 -2.171875 C 0.4375 -2.890625 0.613281 -3.445312 0.96875 -3.84375 C 1.320312 -4.25 1.8125 -4.453125 2.4375 -4.453125 Z M 2.4375 -4.453125 "/>
</symbol>
<symbol overflow="visible" id="glyph1-15">
<path style="stroke:none;" d="M 0.390625 -2.5 L 2.484375 -2.5 L 2.484375 -1.859375 L 0.390625 -1.859375 Z M 0.390625 -2.5 "/>
</symbol>
<symbol overflow="visible" id="glyph1-16">
<path style="stroke:none;" d="M 4.359375 -2.625 L 4.359375 0 L 3.65625 0 L 3.65625 -2.609375 C 3.65625 -3.015625 3.570312 -3.316406 3.40625 -3.515625 C 3.25 -3.722656 3.007812 -3.828125 2.6875 -3.828125 C 2.300781 -3.828125 1.992188 -3.703125 1.765625 -3.453125 C 1.546875 -3.210938 1.4375 -2.878906 1.4375 -2.453125 L 1.4375 0 L 0.71875 0 L 0.71875 -4.34375 L 1.4375 -4.34375 L 1.4375 -3.671875 C 1.613281 -3.929688 1.816406 -4.125 2.046875 -4.25 C 2.273438 -4.382812 2.539062 -4.453125 2.84375 -4.453125 C 3.34375 -4.453125 3.71875 -4.296875 3.96875 -3.984375 C 4.226562 -3.679688 4.359375 -3.226562 4.359375 -2.625 Z M 4.359375 -2.625 "/>
</symbol>
<symbol overflow="visible" id="glyph1-17">
<path style="stroke:none;" d="M 3.515625 -4.21875 L 3.515625 -3.546875 C 3.316406 -3.648438 3.109375 -3.726562 2.890625 -3.78125 C 2.671875 -3.832031 2.445312 -3.859375 2.21875 -3.859375 C 1.863281 -3.859375 1.597656 -3.800781 1.421875 -3.6875 C 1.242188 -3.582031 1.15625 -3.421875 1.15625 -3.203125 C 1.15625 -3.035156 1.21875 -2.90625 1.34375 -2.8125 C 1.46875 -2.71875 1.722656 -2.628906 2.109375 -2.546875 L 2.359375 -2.484375 C 2.859375 -2.378906 3.210938 -2.226562 3.421875 -2.03125 C 3.640625 -1.832031 3.75 -1.554688 3.75 -1.203125 C 3.75 -0.796875 3.585938 -0.472656 3.265625 -0.234375 C 2.953125 -0.00390625 2.515625 0.109375 1.953125 0.109375 C 1.722656 0.109375 1.476562 0.0859375 1.21875 0.046875 C 0.96875 0.00390625 0.707031 -0.0625 0.4375 -0.15625 L 0.4375 -0.890625 C 0.695312 -0.753906 0.953125 -0.648438 1.203125 -0.578125 C 1.460938 -0.515625 1.71875 -0.484375 1.96875 -0.484375 C 2.3125 -0.484375 2.570312 -0.539062 2.75 -0.65625 C 2.925781 -0.769531 3.015625 -0.929688 3.015625 -1.140625 C 3.015625 -1.335938 2.945312 -1.488281 2.8125 -1.59375 C 2.6875 -1.695312 2.40625 -1.796875 1.96875 -1.890625 L 1.71875 -1.953125 C 1.269531 -2.046875 0.945312 -2.1875 0.75 -2.375 C 0.5625 -2.570312 0.46875 -2.835938 0.46875 -3.171875 C 0.46875 -3.578125 0.609375 -3.890625 0.890625 -4.109375 C 1.179688 -4.335938 1.59375 -4.453125 2.125 -4.453125 C 2.394531 -4.453125 2.644531 -4.429688 2.875 -4.390625 C 3.113281 -4.359375 3.328125 -4.300781 3.515625 -4.21875 Z M 3.515625 -4.21875 "/>
</symbol>
<symbol overflow="visible" id="glyph1-18">
<path style="stroke:none;" d="M 1.453125 -5.578125 L 1.453125 -4.34375 L 2.921875 -4.34375 L 2.921875 -3.796875 L 1.453125 -3.796875 L 1.453125 -1.4375 C 1.453125 -1.082031 1.5 -0.851562 1.59375 -0.75 C 1.695312 -0.644531 1.894531 -0.59375 2.1875 -0.59375 L 2.921875 -0.59375 L 2.921875 0 L 2.1875 0 C 1.632812 0 1.253906 -0.101562 1.046875 -0.3125 C 0.835938 -0.519531 0.734375 -0.894531 0.734375 -1.4375 L 0.734375 -3.796875 L 0.21875 -3.796875 L 0.21875 -4.34375 L 0.734375 -4.34375 L 0.734375 -5.578125 Z M 1.453125 -5.578125 "/>
</symbol>
<symbol overflow="visible" id="glyph1-19">
<path style="stroke:none;" d="M 0.75 -4.34375 L 1.46875 -4.34375 L 1.46875 0 L 0.75 0 Z M 0.75 -6.046875 L 1.46875 -6.046875 L 1.46875 -5.140625 L 0.75 -5.140625 Z M 0.75 -6.046875 "/>
</symbol>
<symbol overflow="visible" id="glyph1-20">
<path style="stroke:none;" d="M 3.609375 -3.6875 L 3.609375 -6.046875 L 4.328125 -6.046875 L 4.328125 0 L 3.609375 0 L 3.609375 -0.65625 C 3.460938 -0.394531 3.273438 -0.203125 3.046875 -0.078125 C 2.816406 0.0429688 2.539062 0.109375 2.21875 0.109375 C 1.6875 0.109375 1.253906 -0.0976562 0.921875 -0.515625 C 0.597656 -0.929688 0.4375 -1.484375 0.4375 -2.171875 C 0.4375 -2.859375 0.597656 -3.410156 0.921875 -3.828125 C 1.253906 -4.242188 1.6875 -4.453125 2.21875 -4.453125 C 2.539062 -4.453125 2.816406 -4.390625 3.046875 -4.265625 C 3.273438 -4.140625 3.460938 -3.945312 3.609375 -3.6875 Z M 1.171875 -2.171875 C 1.171875 -1.640625 1.28125 -1.222656 1.5 -0.921875 C 1.71875 -0.628906 2.015625 -0.484375 2.390625 -0.484375 C 2.765625 -0.484375 3.0625 -0.628906 3.28125 -0.921875 C 3.5 -1.222656 3.609375 -1.640625 3.609375 -2.171875 C 3.609375 -2.691406 3.5 -3.101562 3.28125 -3.40625 C 3.0625 -3.707031 2.765625 -3.859375 2.390625 -3.859375 C 2.015625 -3.859375 1.71875 -3.707031 1.5 -3.40625 C 1.28125 -3.101562 1.171875 -2.691406 1.171875 -2.171875 Z M 1.171875 -2.171875 "/>
</symbol>
<symbol overflow="visible" id="glyph2-0">
<path style="stroke:none;" d=""/>
</symbol>
<symbol overflow="visible" id="glyph2-1">
<path style="stroke:none;" d="M 3.3125 0.625 L 4.203125 -2.9375 C 4.234375 -3.046875 4.234375 -3.0625 4.234375 -3.09375 C 4.234375 -3.25 4.109375 -3.359375 3.96875 -3.359375 C 3.828125 -3.359375 3.703125 -3.25 3.671875 -3.109375 C 3.421875 -3.421875 3.09375 -3.46875 2.90625 -3.46875 C 1.984375 -3.46875 1.09375 -2.359375 1.09375 -1.265625 C 1.09375 -0.46875 1.5625 0 2.140625 0 C 2.40625 0 2.703125 -0.109375 2.96875 -0.296875 L 2.75 0.609375 C 2.71875 0.703125 2.46875 1.328125 1.59375 1.328125 C 1.46875 1.328125 1.390625 1.328125 1.25 1.3125 C 1.25 1.28125 1.265625 1.265625 1.265625 1.203125 C 1.265625 1.046875 1.140625 0.875 0.9375 0.875 C 0.71875 0.875 0.546875 1.0625 0.546875 1.296875 C 0.546875 1.8125 1.234375 1.8125 1.578125 1.8125 C 2.75 1.8125 3.21875 1.03125 3.3125 0.625 Z M 3.40625 -2.234375 C 3.40625 -1.390625 2.734375 -0.484375 2.15625 -0.484375 C 1.8125 -0.484375 1.640625 -0.84375 1.640625 -1.25 C 1.640625 -2.109375 2.328125 -2.984375 2.890625 -2.984375 C 3.28125 -2.984375 3.40625 -2.546875 3.40625 -2.234375 Z M 3.40625 -2.234375 "/>
</symbol>
<symbol overflow="visible" id="glyph2-2">
<path style="stroke:none;" d="M 4.203125 -0.59375 C 4.203125 -0.71875 4.0625 -0.875 3.921875 -0.875 C 3.84375 -0.875 3.78125 -0.828125 3.75 -0.796875 C 3.59375 -0.65625 3.328125 -0.4375 2.453125 -0.4375 C 2.296875 -0.4375 1.640625 -0.4375 1.640625 -1.28125 C 1.640625 -2.15625 2.421875 -2.984375 3.109375 -2.984375 C 3.25 -2.984375 3.375 -2.953125 3.46875 -2.84375 C 3.421875 -2.8125 3.34375 -2.75 3.34375 -2.546875 C 3.34375 -2.34375 3.5 -2.234375 3.671875 -2.234375 C 3.90625 -2.234375 4.078125 -2.4375 4.078125 -2.71875 C 4.078125 -3.140625 3.6875 -3.46875 3.125 -3.46875 C 2.09375 -3.46875 1.09375 -2.40625 1.09375 -1.296875 C 1.09375 -0.828125 1.25 -0.515625 1.515625 -0.265625 C 1.84375 0.046875 2.25 0.046875 2.484375 0.046875 C 2.765625 0.046875 3.171875 0.046875 3.515625 -0.078125 C 3.65625 -0.109375 4.203125 -0.328125 4.203125 -0.59375 Z M 4.203125 -0.59375 "/>
</symbol>
<symbol overflow="visible" id="glyph2-3">
<path style="stroke:none;" d="M 4.03125 -2.265625 C 4.03125 -2.953125 3.65625 -3.46875 3.09375 -3.46875 C 2.71875 -3.46875 2.40625 -3.25 2.1875 -3.046875 C 2 -3.453125 1.640625 -3.46875 1.546875 -3.46875 C 1.203125 -3.46875 1.015625 -3.25 0.90625 -3.046875 C 0.75 -2.796875 0.640625 -2.375 0.640625 -2.28125 C 0.640625 -2.21875 0.671875 -2.0625 0.90625 -2.0625 C 1.140625 -2.0625 1.15625 -2.15625 1.21875 -2.375 C 1.265625 -2.5625 1.375 -2.984375 1.53125 -2.984375 C 1.6875 -2.984375 1.703125 -2.796875 1.703125 -2.75 C 1.703125 -2.734375 1.6875 -2.625 1.671875 -2.59375 L 0.703125 1.28125 L 0.421875 1.28125 C 0.3125 1.28125 0.09375 1.28125 0.09375 1.546875 C 0.09375 1.765625 0.3125 1.765625 0.40625 1.765625 L 1.609375 1.765625 C 1.734375 1.765625 1.953125 1.765625 1.953125 1.5 C 1.953125 1.28125 1.734375 1.28125 1.625 1.28125 L 1.265625 1.28125 L 1.65625 -0.265625 C 1.65625 -0.25 1.921875 0.046875 2.328125 0.046875 C 3.1875 0.046875 4.03125 -1.140625 4.03125 -2.265625 Z M 3.484375 -2.28125 C 3.484375 -1.359375 2.8125 -0.4375 2.34375 -0.4375 C 1.984375 -0.4375 1.9375 -0.984375 1.9375 -1.140625 C 1.9375 -2.046875 2.59375 -2.984375 3.078125 -2.984375 C 3.375 -2.984375 3.484375 -2.625 3.484375 -2.28125 Z M 3.484375 -2.28125 "/>
</symbol>
<symbol overflow="visible" id="glyph2-4">
<path style="stroke:none;" d="M 4.328125 -2.4375 C 4.328125 -2.71875 4.0625 -2.71875 3.96875 -2.71875 L 1.421875 -2.71875 C 1.328125 -2.71875 1.0625 -2.71875 1.0625 -2.4375 C 1.0625 -2.15625 1.34375 -2.15625 1.421875 -2.15625 L 3.96875 -2.15625 C 4.0625 -2.15625 4.328125 -2.15625 4.328125 -2.4375 Z M 4.328125 -2.4375 "/>
</symbol>
<symbol overflow="visible" id="glyph2-5">
<path style="stroke:none;" d="M 3.890625 -1.140625 C 3.890625 -1.171875 3.890625 -1.375 3.625 -1.375 C 3.40625 -1.375 3.375 -1.25 3.34375 -1.15625 C 3.203125 -0.6875 2.890625 -0.4375 2.640625 -0.4375 C 2.53125 -0.4375 2.40625 -0.5 2.40625 -0.65625 C 2.40625 -0.703125 2.515625 -1 2.578125 -1.15625 L 2.84375 -1.796875 L 3.03125 -2.28125 C 3.15625 -2.59375 3.171875 -2.640625 3.171875 -2.78125 C 3.171875 -3.1875 2.828125 -3.46875 2.40625 -3.46875 C 1.59375 -3.46875 1.140625 -2.546875 1.140625 -2.28125 C 1.140625 -2.21875 1.171875 -2.0625 1.40625 -2.0625 C 1.609375 -2.0625 1.640625 -2.140625 1.6875 -2.265625 C 1.875 -2.859375 2.234375 -2.984375 2.390625 -2.984375 C 2.53125 -2.984375 2.625 -2.90625 2.625 -2.78125 C 2.625 -2.703125 2.59375 -2.625 2.578125 -2.609375 L 1.921875 -0.96875 C 1.890625 -0.859375 1.859375 -0.8125 1.859375 -0.65625 C 1.859375 -0.234375 2.21875 0.046875 2.625 0.046875 C 3.4375 0.046875 3.890625 -0.890625 3.890625 -1.140625 Z M 3.546875 -4.453125 C 3.546875 -4.65625 3.390625 -4.765625 3.21875 -4.765625 C 3 -4.765625 2.828125 -4.578125 2.828125 -4.390625 C 2.828125 -4.234375 2.9375 -4.0625 3.171875 -4.0625 C 3.328125 -4.0625 3.546875 -4.203125 3.546875 -4.453125 Z M 3.546875 -4.453125 "/>
</symbol>
<symbol overflow="visible" id="glyph2-6">
<path style="stroke:none;" d="M 4.203125 -0.59375 C 4.203125 -0.71875 4.0625 -0.875 3.921875 -0.875 C 3.84375 -0.875 3.78125 -0.828125 3.75 -0.796875 C 3.59375 -0.65625 3.328125 -0.4375 2.453125 -0.4375 C 2.296875 -0.4375 1.640625 -0.4375 1.640625 -1.296875 C 1.640625 -1.5 1.65625 -1.5 1.8125 -1.5 L 2.0625 -1.5 C 2.625 -1.5 3.125 -1.578125 3.421875 -1.703125 C 4.046875 -1.984375 4.109375 -2.484375 4.109375 -2.640625 C 4.109375 -3.125 3.703125 -3.46875 3.125 -3.46875 C 2.125 -3.46875 1.09375 -2.46875 1.09375 -1.3125 C 1.09375 -0.84375 1.25 -0.53125 1.46875 -0.3125 C 1.828125 0.046875 2.1875 0.046875 2.484375 0.046875 C 2.765625 0.046875 3.171875 0.046875 3.515625 -0.078125 C 3.65625 -0.109375 4.203125 -0.328125 4.203125 -0.59375 Z M 3.5625 -2.640625 C 3.5625 -2.078125 2.71875 -1.984375 2.03125 -1.984375 L 1.796875 -1.984375 C 2.078125 -2.609375 2.640625 -2.984375 3.109375 -2.984375 C 3.375 -2.984375 3.5625 -2.859375 3.5625 -2.640625 Z M 3.5625 -2.640625 "/>
</symbol>
<symbol overflow="visible" id="glyph2-7">
<path style="stroke:none;" d="M 3.8125 -1.140625 C 3.8125 -1.171875 3.796875 -1.375 3.53125 -1.375 C 3.328125 -1.375 3.296875 -1.265625 3.265625 -1.15625 C 3.21875 -1 3.046875 -0.4375 2.71875 -0.4375 C 2.671875 -0.4375 2.28125 -0.46875 2.28125 -0.734375 C 2.28125 -0.765625 2.28125 -0.78125 2.3125 -0.890625 L 3.21875 -4.5 C 3.21875 -4.546875 3.234375 -4.59375 3.234375 -4.640625 C 3.234375 -4.859375 3.015625 -4.859375 2.90625 -4.859375 L 1.890625 -4.859375 C 1.796875 -4.859375 1.5625 -4.859375 1.5625 -4.59375 C 1.5625 -4.375 1.78125 -4.375 1.890625 -4.375 L 2.609375 -4.375 L 1.75 -0.96875 C 1.71875 -0.828125 1.71875 -0.765625 1.71875 -0.71875 C 1.71875 -0.171875 2.296875 0.046875 2.703125 0.046875 C 3.515625 0.046875 3.8125 -1.015625 3.8125 -1.140625 Z M 3.8125 -1.140625 "/>
</symbol>
<symbol overflow="visible" id="glyph2-8">
<path style="stroke:none;" d="M 4.390625 -1.140625 C 4.390625 -1.171875 4.390625 -1.375 4.125 -1.375 C 3.90625 -1.375 3.875 -1.25 3.828125 -1.109375 C 3.71875 -0.71875 3.5625 -0.4375 3.375 -0.4375 C 3.328125 -0.4375 3.3125 -0.484375 3.3125 -0.5625 C 3.3125 -0.671875 3.390625 -0.875 3.4375 -1.046875 C 3.5 -1.21875 3.859375 -2.234375 3.859375 -2.640625 C 3.859375 -3.15625 3.5625 -3.46875 3.0625 -3.46875 C 2.71875 -3.46875 2.40625 -3.328125 2.109375 -3.03125 C 1.984375 -3.390625 1.6875 -3.46875 1.5 -3.46875 C 1.21875 -3.46875 1.015625 -3.3125 0.875 -3.046875 C 0.75 -2.796875 0.640625 -2.359375 0.640625 -2.28125 C 0.640625 -2.21875 0.671875 -2.0625 0.90625 -2.0625 C 1.140625 -2.0625 1.15625 -2.15625 1.21875 -2.375 C 1.234375 -2.5 1.375 -2.984375 1.5 -2.984375 C 1.59375 -2.984375 1.609375 -2.84375 1.609375 -2.78125 C 1.609375 -2.6875 1.59375 -2.65625 1.578125 -2.59375 L 1.03125 -0.375 C 1 -0.265625 1 -0.25 1 -0.21875 C 1 -0.0625 1.125 0.046875 1.25 0.046875 C 1.484375 0.046875 1.515625 -0.09375 1.609375 -0.484375 C 1.765625 -1.09375 1.953125 -1.78125 2.21875 -2.28125 C 2.375 -2.578125 2.65625 -2.984375 3.046875 -2.984375 C 3.21875 -2.984375 3.3125 -2.921875 3.3125 -2.65625 C 3.3125 -2.296875 2.96875 -1.359375 2.859375 -1.03125 C 2.8125 -0.875 2.765625 -0.765625 2.765625 -0.59375 C 2.765625 -0.21875 3 0.046875 3.359375 0.046875 C 4.109375 0.046875 4.390625 -1.015625 4.390625 -1.140625 Z M 4.390625 -1.140625 "/>
</symbol>
<symbol overflow="visible" id="glyph2-9">
<path style="stroke:none;" d="M 3.921875 -1.140625 C 3.921875 -1.171875 3.921875 -1.375 3.65625 -1.375 C 3.453125 -1.375 3.421875 -1.28125 3.359375 -1.140625 C 3.203125 -0.765625 2.84375 -0.4375 2.5 -0.4375 C 2.375 -0.4375 2.21875 -0.484375 2.21875 -0.703125 C 2.21875 -0.75 2.21875 -0.765625 2.25 -0.890625 L 2.75 -2.9375 L 3.484375 -2.9375 C 3.609375 -2.9375 3.828125 -2.9375 3.828125 -3.203125 C 3.828125 -3.421875 3.609375 -3.421875 3.5 -3.421875 L 2.875 -3.421875 L 3.140625 -4.5 C 3.171875 -4.609375 3.171875 -4.625 3.171875 -4.640625 C 3.171875 -4.796875 3.046875 -4.90625 2.90625 -4.90625 C 2.6875 -4.90625 2.625 -4.6875 2.609375 -4.625 L 2.3125 -3.421875 L 1.578125 -3.421875 C 1.46875 -3.421875 1.234375 -3.421875 1.234375 -3.171875 C 1.234375 -2.9375 1.46875 -2.9375 1.5625 -2.9375 L 2.1875 -2.9375 L 1.65625 -0.703125 C 1.65625 -0.296875 1.984375 0.046875 2.484375 0.046875 C 3.359375 0.046875 3.921875 -0.921875 3.921875 -1.140625 Z M 3.921875 -1.140625 "/>
</symbol>
<symbol overflow="visible" id="glyph2-10">
<path style="stroke:none;" d="M 3.859375 -1.15625 C 3.859375 -1.859375 3.046875 -2 2.6875 -2.0625 C 2.234375 -2.140625 1.9375 -2.1875 1.9375 -2.421875 C 1.9375 -2.5 2 -2.734375 2.265625 -2.859375 C 2.5 -2.984375 2.796875 -2.984375 2.875 -2.984375 C 2.984375 -2.984375 3.25 -2.984375 3.421875 -2.875 C 3.359375 -2.8125 3.34375 -2.734375 3.34375 -2.640625 C 3.34375 -2.375 3.578125 -2.34375 3.65625 -2.34375 C 3.8125 -2.34375 4.03125 -2.453125 4.03125 -2.78125 C 4.03125 -3.203125 3.65625 -3.46875 2.890625 -3.46875 C 1.734375 -3.46875 1.453125 -2.75 1.453125 -2.421875 C 1.453125 -2.234375 1.53125 -2.03125 1.734375 -1.859375 C 1.953125 -1.703125 2.09375 -1.671875 2.65625 -1.578125 C 2.90625 -1.53125 3.375 -1.453125 3.375 -1.140625 C 3.375 -1.015625 3.265625 -0.75 2.984375 -0.609375 C 2.703125 -0.46875 2.375 -0.4375 2.140625 -0.4375 C 2.046875 -0.4375 1.609375 -0.4375 1.390625 -0.609375 C 1.421875 -0.625 1.515625 -0.75 1.515625 -0.890625 C 1.515625 -1.015625 1.421875 -1.203125 1.1875 -1.203125 C 1.0625 -1.203125 0.78125 -1.140625 0.78125 -0.71875 C 0.78125 0.046875 1.875 0.046875 2.125 0.046875 C 2.359375 0.046875 2.84375 0.046875 3.28125 -0.21875 C 3.625 -0.4375 3.859375 -0.8125 3.859375 -1.15625 Z M 3.859375 -1.15625 "/>
</symbol>
<symbol overflow="visible" id="glyph2-11">
<path style="stroke:none;" d="M 4.609375 -2.671875 C 4.609375 -3.21875 4.046875 -3.46875 3.453125 -3.46875 C 3.3125 -3.46875 2.859375 -3.46875 2.4375 -3.015625 C 2.328125 -3.265625 2.0625 -3.46875 1.703125 -3.46875 C 0.953125 -3.46875 0.75 -2.3125 0.75 -2.28125 C 0.75 -2.21875 0.78125 -2.0625 1.015625 -2.0625 C 1.25 -2.0625 1.265625 -2.15625 1.3125 -2.34375 C 1.390625 -2.625 1.484375 -2.984375 1.703125 -2.984375 C 1.78125 -2.984375 1.9375 -2.953125 1.9375 -2.734375 C 1.9375 -2.6875 1.9375 -2.671875 1.90625 -2.546875 L 1.359375 -0.375 C 1.328125 -0.25 1.328125 -0.234375 1.328125 -0.21875 C 1.328125 -0.0625 1.453125 0.046875 1.59375 0.046875 C 1.8125 0.046875 1.859375 -0.09375 1.953125 -0.484375 C 2.15625 -1.34375 2.359375 -1.921875 2.578125 -2.328125 C 2.796875 -2.6875 3.046875 -2.984375 3.4375 -2.984375 C 3.546875 -2.984375 3.859375 -2.96875 4.015625 -2.796875 C 3.96875 -2.765625 3.875 -2.703125 3.875 -2.5 C 3.875 -2.3125 4.03125 -2.171875 4.203125 -2.171875 C 4.34375 -2.171875 4.609375 -2.28125 4.609375 -2.671875 Z M 4.609375 -2.671875 "/>
</symbol>
<symbol overflow="visible" id="glyph3-0">
<path style="stroke:none;" d="M 0.390625 1.40625 L 0.390625 -5.609375 L 4.375 -5.609375 L 4.375 1.40625 Z M 0.84375 0.96875 L 3.9375 0.96875 L 3.9375 -5.15625 L 0.84375 -5.15625 Z M 0.84375 0.96875 "/>
</symbol>
<symbol overflow="visible" id="glyph3-1">
<path style="stroke:none;" d="M 3.359375 -4.34375 L 3.25 -3.796875 L 1.828125 -3.796875 L 1.359375 -1.4375 C 1.347656 -1.34375 1.335938 -1.265625 1.328125 -1.203125 C 1.328125 -1.148438 1.328125 -1.109375 1.328125 -1.078125 C 1.328125 -0.910156 1.375 -0.785156 1.46875 -0.703125 C 1.570312 -0.628906 1.734375 -0.59375 1.953125 -0.59375 L 2.671875 -0.59375 L 2.546875 0 L 1.875 0 C 1.445312 0 1.128906 -0.0820312 0.921875 -0.25 C 0.710938 -0.414062 0.609375 -0.664062 0.609375 -1 C 0.609375 -1.0625 0.609375 -1.128906 0.609375 -1.203125 C 0.617188 -1.273438 0.632812 -1.351562 0.65625 -1.4375 L 1.109375 -3.796875 L 0.515625 -3.796875 L 0.625 -4.34375 L 1.21875 -4.34375 L 1.453125 -5.578125 L 2.171875 -5.578125 L 1.9375 -4.34375 Z M 3.359375 -4.34375 "/>
</symbol>
<symbol overflow="visible" id="glyph3-2">
<path style="stroke:none;" d="M 3.828125 -2.5625 C 3.835938 -2.601562 3.84375 -2.644531 3.84375 -2.6875 C 3.84375 -2.726562 3.84375 -2.773438 3.84375 -2.828125 C 3.84375 -3.140625 3.75 -3.382812 3.5625 -3.5625 C 3.382812 -3.75 3.132812 -3.84375 2.8125 -3.84375 C 2.457031 -3.84375 2.144531 -3.726562 1.875 -3.5 C 1.601562 -3.28125 1.398438 -2.96875 1.265625 -2.5625 Z M 4.453125 -2 L 1.125 -2 C 1.101562 -1.90625 1.085938 -1.828125 1.078125 -1.765625 C 1.078125 -1.710938 1.078125 -1.664062 1.078125 -1.625 C 1.078125 -1.257812 1.1875 -0.976562 1.40625 -0.78125 C 1.632812 -0.59375 1.953125 -0.5 2.359375 -0.5 C 2.660156 -0.5 2.953125 -0.53125 3.234375 -0.59375 C 3.515625 -0.664062 3.769531 -0.769531 4 -0.90625 L 3.875 -0.203125 C 3.613281 -0.0976562 3.347656 -0.0195312 3.078125 0.03125 C 2.804688 0.0820312 2.53125 0.109375 2.25 0.109375 C 1.644531 0.109375 1.175781 -0.03125 0.84375 -0.3125 C 0.519531 -0.601562 0.359375 -1.015625 0.359375 -1.546875 C 0.359375 -2.003906 0.4375 -2.425781 0.59375 -2.8125 C 0.757812 -3.195312 1.003906 -3.546875 1.328125 -3.859375 C 1.523438 -4.046875 1.757812 -4.191406 2.03125 -4.296875 C 2.3125 -4.398438 2.609375 -4.453125 2.921875 -4.453125 C 3.421875 -4.453125 3.816406 -4.300781 4.109375 -4 C 4.398438 -3.707031 4.546875 -3.316406 4.546875 -2.828125 C 4.546875 -2.703125 4.535156 -2.570312 4.515625 -2.4375 C 4.503906 -2.300781 4.484375 -2.15625 4.453125 -2 Z M 4.453125 -2 "/>
</symbol>
<symbol overflow="visible" id="glyph3-3">
<path style="stroke:none;" d="M 3.984375 -4.21875 L 3.84375 -3.546875 C 3.65625 -3.648438 3.453125 -3.726562 3.234375 -3.78125 C 3.023438 -3.832031 2.8125 -3.859375 2.59375 -3.859375 C 2.21875 -3.859375 1.921875 -3.789062 1.703125 -3.65625 C 1.484375 -3.53125 1.375 -3.359375 1.375 -3.140625 C 1.375 -2.878906 1.628906 -2.679688 2.140625 -2.546875 C 2.171875 -2.535156 2.195312 -2.53125 2.21875 -2.53125 L 2.453125 -2.453125 C 2.929688 -2.328125 3.25 -2.191406 3.40625 -2.046875 C 3.5625 -1.898438 3.640625 -1.703125 3.640625 -1.453125 C 3.640625 -0.984375 3.457031 -0.601562 3.09375 -0.3125 C 2.726562 -0.03125 2.25 0.109375 1.65625 0.109375 C 1.425781 0.109375 1.179688 0.0859375 0.921875 0.046875 C 0.671875 0.00390625 0.394531 -0.0625 0.09375 -0.15625 L 0.234375 -0.890625 C 0.492188 -0.753906 0.75 -0.648438 1 -0.578125 C 1.25 -0.515625 1.492188 -0.484375 1.734375 -0.484375 C 2.078125 -0.484375 2.359375 -0.554688 2.578125 -0.703125 C 2.796875 -0.859375 2.90625 -1.050781 2.90625 -1.28125 C 2.90625 -1.53125 2.617188 -1.734375 2.046875 -1.890625 L 1.734375 -1.96875 C 1.367188 -2.0625 1.101562 -2.1875 0.9375 -2.34375 C 0.769531 -2.5 0.6875 -2.695312 0.6875 -2.9375 C 0.6875 -3.40625 0.859375 -3.773438 1.203125 -4.046875 C 1.554688 -4.316406 2.03125 -4.453125 2.625 -4.453125 C 2.863281 -4.453125 3.09375 -4.429688 3.3125 -4.390625 C 3.539062 -4.359375 3.765625 -4.300781 3.984375 -4.21875 Z M 3.984375 -4.21875 "/>
</symbol>
<symbol overflow="visible" id="glyph3-4">
<path style="stroke:none;" d="M 4.4375 -2.625 L 3.921875 0 L 3.203125 0 L 3.71875 -2.59375 C 3.738281 -2.71875 3.753906 -2.828125 3.765625 -2.921875 C 3.773438 -3.015625 3.78125 -3.085938 3.78125 -3.140625 C 3.78125 -3.359375 3.710938 -3.523438 3.578125 -3.640625 C 3.441406 -3.765625 3.25 -3.828125 3 -3.828125 C 2.625 -3.828125 2.296875 -3.695312 2.015625 -3.4375 C 1.734375 -3.1875 1.550781 -2.84375 1.46875 -2.40625 L 1 0 L 0.28125 0 L 1.453125 -6.046875 L 2.171875 -6.046875 L 1.703125 -3.671875 C 1.890625 -3.910156 2.125 -4.097656 2.40625 -4.234375 C 2.6875 -4.378906 2.984375 -4.453125 3.296875 -4.453125 C 3.679688 -4.453125 3.976562 -4.347656 4.1875 -4.140625 C 4.394531 -3.929688 4.5 -3.640625 4.5 -3.265625 C 4.5 -3.171875 4.492188 -3.070312 4.484375 -2.96875 C 4.472656 -2.863281 4.457031 -2.75 4.4375 -2.625 Z M 4.4375 -2.625 "/>
</symbol>
<symbol overflow="visible" id="glyph3-5">
<path style="stroke:none;" d="M 1.453125 -6.046875 L 2.171875 -6.046875 L 1 0 L 0.28125 0 Z M 1.453125 -6.046875 "/>
</symbol>
<symbol overflow="visible" id="glyph3-6">
<path style="stroke:none;" d="M 3.953125 -2.671875 C 3.953125 -3.054688 3.867188 -3.347656 3.703125 -3.546875 C 3.535156 -3.753906 3.296875 -3.859375 2.984375 -3.859375 C 2.765625 -3.859375 2.554688 -3.800781 2.359375 -3.6875 C 2.171875 -3.582031 2.003906 -3.425781 1.859375 -3.21875 C 1.710938 -3.007812 1.59375 -2.757812 1.5 -2.46875 C 1.414062 -2.1875 1.375 -1.898438 1.375 -1.609375 C 1.375 -1.253906 1.457031 -0.976562 1.625 -0.78125 C 1.789062 -0.582031 2.023438 -0.484375 2.328125 -0.484375 C 2.554688 -0.484375 2.765625 -0.535156 2.953125 -0.640625 C 3.148438 -0.742188 3.316406 -0.898438 3.453125 -1.109375 C 3.597656 -1.316406 3.71875 -1.5625 3.8125 -1.84375 C 3.90625 -2.132812 3.953125 -2.410156 3.953125 -2.671875 Z M 1.734375 -3.6875 C 1.921875 -3.9375 2.144531 -4.125 2.40625 -4.25 C 2.664062 -4.382812 2.957031 -4.453125 3.28125 -4.453125 C 3.726562 -4.453125 4.070312 -4.304688 4.3125 -4.015625 C 4.5625 -3.722656 4.6875 -3.316406 4.6875 -2.796875 C 4.6875 -2.359375 4.609375 -1.945312 4.453125 -1.5625 C 4.296875 -1.175781 4.078125 -0.828125 3.796875 -0.515625 C 3.597656 -0.304688 3.378906 -0.148438 3.140625 -0.046875 C 2.898438 0.0546875 2.648438 0.109375 2.390625 0.109375 C 2.078125 0.109375 1.816406 0.0429688 1.609375 -0.078125 C 1.398438 -0.203125 1.242188 -0.394531 1.140625 -0.65625 L 0.6875 1.65625 L -0.015625 1.65625 L 1.140625 -4.34375 L 1.859375 -4.34375 Z M 1.734375 -3.6875 "/>
</symbol>
<symbol overflow="visible" id="glyph3-7">
<path style="stroke:none;" d="M 3.546875 -3.6875 C 3.472656 -3.726562 3.390625 -3.757812 3.296875 -3.78125 C 3.203125 -3.800781 3.101562 -3.8125 3 -3.8125 C 2.613281 -3.8125 2.28125 -3.664062 2 -3.375 C 1.71875 -3.082031 1.53125 -2.695312 1.4375 -2.21875 L 1 0 L 0.28125 0 L 1.125 -4.34375 L 1.84375 -4.34375 L 1.703125 -3.671875 C 1.890625 -3.921875 2.113281 -4.113281 2.375 -4.25 C 2.644531 -4.382812 2.929688 -4.453125 3.234375 -4.453125 C 3.304688 -4.453125 3.378906 -4.445312 3.453125 -4.4375 C 3.523438 -4.425781 3.601562 -4.410156 3.6875 -4.390625 Z M 3.546875 -3.6875 "/>
</symbol>
<symbol overflow="visible" id="glyph3-8">
<path style="stroke:none;" d="M 0.703125 -0.984375 L 1.515625 -0.984375 L 1.375 -0.3125 L 0.515625 0.921875 L 0 0.921875 L 0.5625 -0.3125 Z M 1.3125 -4.109375 L 2.125 -4.109375 L 1.9375 -3.125 L 1.109375 -3.125 Z M 1.3125 -4.109375 "/>
</symbol>
<symbol overflow="visible" id="glyph3-9">
<path style="stroke:none;" d="M 0.53125 -1.71875 L 1.046875 -4.34375 L 1.765625 -4.34375 L 1.25 -1.75 C 1.226562 -1.625 1.207031 -1.515625 1.1875 -1.421875 C 1.175781 -1.335938 1.171875 -1.265625 1.171875 -1.203125 C 1.171875 -0.984375 1.238281 -0.8125 1.375 -0.6875 C 1.507812 -0.570312 1.703125 -0.515625 1.953125 -0.515625 C 2.335938 -0.515625 2.664062 -0.640625 2.9375 -0.890625 C 3.21875 -1.148438 3.398438 -1.5 3.484375 -1.9375 L 3.96875 -4.34375 L 4.6875 -4.34375 L 3.84375 0 L 3.125 0 L 3.265625 -0.6875 C 3.066406 -0.425781 2.828125 -0.226562 2.546875 -0.09375 C 2.265625 0.0390625 1.96875 0.109375 1.65625 0.109375 C 1.28125 0.109375 0.984375 0.00390625 0.765625 -0.203125 C 0.554688 -0.410156 0.453125 -0.703125 0.453125 -1.078125 C 0.453125 -1.148438 0.457031 -1.242188 0.46875 -1.359375 C 0.488281 -1.472656 0.507812 -1.59375 0.53125 -1.71875 Z M 0.53125 -1.71875 "/>
</symbol>
<symbol overflow="visible" id="glyph3-10">
<path style="stroke:none;" d="M 3.328125 -0.65625 C 3.128906 -0.40625 2.898438 -0.210938 2.640625 -0.078125 C 2.378906 0.0429688 2.09375 0.109375 1.78125 0.109375 C 1.34375 0.109375 0.992188 -0.0351562 0.734375 -0.328125 C 0.484375 -0.628906 0.359375 -1.035156 0.359375 -1.546875 C 0.359375 -1.972656 0.4375 -2.378906 0.59375 -2.765625 C 0.75 -3.160156 0.972656 -3.515625 1.265625 -3.828125 C 1.453125 -4.023438 1.664062 -4.175781 1.90625 -4.28125 C 2.144531 -4.394531 2.394531 -4.453125 2.65625 -4.453125 C 2.9375 -4.453125 3.179688 -4.382812 3.390625 -4.25 C 3.609375 -4.113281 3.78125 -3.921875 3.90625 -3.671875 L 4.359375 -6.046875 L 5.078125 -6.046875 L 3.90625 0 L 3.1875 0 Z M 1.109375 -1.671875 C 1.109375 -1.296875 1.191406 -1.003906 1.359375 -0.796875 C 1.523438 -0.585938 1.757812 -0.484375 2.0625 -0.484375 C 2.289062 -0.484375 2.5 -0.535156 2.6875 -0.640625 C 2.875 -0.753906 3.039062 -0.914062 3.1875 -1.125 C 3.34375 -1.34375 3.460938 -1.59375 3.546875 -1.875 C 3.640625 -2.15625 3.6875 -2.4375 3.6875 -2.71875 C 3.6875 -3.082031 3.597656 -3.363281 3.421875 -3.5625 C 3.253906 -3.757812 3.019531 -3.859375 2.71875 -3.859375 C 2.5 -3.859375 2.289062 -3.804688 2.09375 -3.703125 C 1.90625 -3.597656 1.738281 -3.445312 1.59375 -3.25 C 1.445312 -3.03125 1.328125 -2.773438 1.234375 -2.484375 C 1.148438 -2.203125 1.109375 -1.929688 1.109375 -1.671875 Z M 1.109375 -1.671875 "/>
</symbol>
<symbol overflow="visible" id="glyph3-11">
<path style="stroke:none;" d="M 1.453125 -6.046875 L 2.171875 -6.046875 L 2 -5.140625 L 1.28125 -5.140625 Z M 1.125 -4.34375 L 1.84375 -4.34375 L 1 0 L 0.28125 0 Z M 1.125 -4.34375 "/>
</symbol>
<symbol overflow="visible" id="glyph3-12">
<path style="stroke:none;" d="M 4.4375 -2.625 L 3.921875 0 L 3.203125 0 L 3.71875 -2.59375 C 3.738281 -2.71875 3.753906 -2.828125 3.765625 -2.921875 C 3.773438 -3.015625 3.78125 -3.085938 3.78125 -3.140625 C 3.78125 -3.359375 3.710938 -3.523438 3.578125 -3.640625 C 3.441406 -3.765625 3.25 -3.828125 3 -3.828125 C 2.625 -3.828125 2.296875 -3.695312 2.015625 -3.4375 C 1.734375 -3.1875 1.550781 -2.84375 1.46875 -2.40625 L 1 0 L 0.28125 0 L 1.125 -4.34375 L 1.84375 -4.34375 L 1.6875 -3.671875 C 1.882812 -3.921875 2.125 -4.113281 2.40625 -4.25 C 2.6875 -4.382812 2.984375 -4.453125 3.296875 -4.453125 C 3.679688 -4.453125 3.976562 -4.347656 4.1875 -4.140625 C 4.394531 -3.929688 4.5 -3.640625 4.5 -3.265625 C 4.5 -3.171875 4.492188 -3.070312 4.484375 -2.96875 C 4.472656 -2.863281 4.457031 -2.75 4.4375 -2.625 Z M 4.4375 -2.625 "/>
</symbol>
<symbol overflow="visible" id="glyph3-13">
<path style="stroke:none;" d="M 2.015625 0.109375 C 1.503906 0.109375 1.097656 -0.046875 0.796875 -0.359375 C 0.503906 -0.671875 0.359375 -1.097656 0.359375 -1.640625 C 0.359375 -1.960938 0.410156 -2.285156 0.515625 -2.609375 C 0.617188 -2.941406 0.753906 -3.21875 0.921875 -3.4375 C 1.171875 -3.78125 1.453125 -4.035156 1.765625 -4.203125 C 2.085938 -4.367188 2.445312 -4.453125 2.84375 -4.453125 C 3.34375 -4.453125 3.742188 -4.296875 4.046875 -3.984375 C 4.347656 -3.679688 4.5 -3.28125 4.5 -2.78125 C 4.5 -2.4375 4.445312 -2.09375 4.34375 -1.75 C 4.25 -1.414062 4.117188 -1.132812 3.953125 -0.90625 C 3.703125 -0.5625 3.414062 -0.304688 3.09375 -0.140625 C 2.78125 0.0234375 2.421875 0.109375 2.015625 0.109375 Z M 1.109375 -1.671875 C 1.109375 -1.273438 1.1875 -0.976562 1.34375 -0.78125 C 1.507812 -0.59375 1.757812 -0.5 2.09375 -0.5 C 2.570312 -0.5 2.96875 -0.707031 3.28125 -1.125 C 3.601562 -1.539062 3.765625 -2.066406 3.765625 -2.703125 C 3.765625 -3.085938 3.679688 -3.375 3.515625 -3.5625 C 3.347656 -3.75 3.097656 -3.84375 2.765625 -3.84375 C 2.492188 -3.84375 2.253906 -3.78125 2.046875 -3.65625 C 1.835938 -3.53125 1.648438 -3.34375 1.484375 -3.09375 C 1.367188 -2.894531 1.273438 -2.671875 1.203125 -2.421875 C 1.140625 -2.179688 1.109375 -1.929688 1.109375 -1.671875 Z M 1.109375 -1.671875 "/>
</symbol>
<symbol overflow="visible" id="glyph3-14">
<path style="stroke:none;" d="M 1.96875 0.40625 C 1.632812 0.957031 1.363281 1.300781 1.15625 1.4375 C 0.945312 1.582031 0.679688 1.65625 0.359375 1.65625 L -0.203125 1.65625 L -0.078125 1.0625 L 0.328125 1.0625 C 0.535156 1.0625 0.707031 1.003906 0.84375 0.890625 C 0.976562 0.785156 1.132812 0.570312 1.3125 0.25 L 1.53125 -0.15625 L 0.578125 -4.34375 L 1.328125 -4.34375 L 2.046875 -1.015625 L 4.046875 -4.34375 L 4.796875 -4.34375 Z M 1.96875 0.40625 "/>
</symbol>
</g>
<clipPath id="clip1">
  <path d="M 0.304688 56 L 125 56 L 125 102 L 0.304688 102 Z M 0.304688 56 "/>
</clipPath>
<clipPath id="clip2">
  <path d="M 341 56 L 489.097656 56 L 489.097656 102 L 341 102 Z M 341 56 "/>
</clipPath>
</defs>
<g id="surface1">
<path style="fill-rule:nonzero;fill:rgb(96.24939%,84.999084%,88.749695%);fill-opacity:1;stroke-width:0.59776;stroke-linecap:butt;stroke-linejoin:miter;stroke:rgb(50%,50%,50%);stroke-opacity:1;stroke-miterlimit:10;" d="M 179.343449 127.561137 L 75.780157 127.561137 C 73.578517 127.561137 71.792132 125.774752 71.792132 123.577029 L 71.792132 103.198142 C 71.792132 100.996502 73.578517 99.214035 75.780157 99.214035 L 179.343449 99.214035 C 181.541172 99.214035 183.327557 100.996502 183.327557 103.198142 L 183.327557 123.577029 C 183.327557 125.774752 181.541172 127.561137 179.343449 127.561137 Z M 179.343449 127.561137 " transform="matrix(0.997126,0,0,-0.997126,62.25406,135.440588)"/>
<g style="fill:rgb(0%,0%,0%);fill-opacity:1;">
  <use xlink:href="#glyph0-1" x="137.815252" y="18.842685"/>
  <use xlink:href="#glyph0-2" x="142.509082" y="18.842685"/>
  <use xlink:href="#glyph0-3" x="147.202912" y="18.842685"/>
  <use xlink:href="#glyph0-4" x="151.896742" y="18.842685"/>
  <use xlink:href="#glyph0-3" x="156.590572" y="18.842685"/>
  <use xlink:href="#glyph0-5" x="161.284402" y="18.842685"/>
  <use xlink:href="#glyph0-3" x="165.978231" y="18.842685"/>
  <use xlink:href="#glyph0-6" x="170.672061" y="18.842685"/>
  <use xlink:href="#glyph0-7" x="175.365891" y="18.842685"/>
  <use xlink:href="#glyph0-5" x="180.059721" y="18.842685"/>
  <use xlink:href="#glyph0-8" x="184.753551" y="18.842685"/>
  <use xlink:href="#glyph0-6" x="189.447381" y="18.842685"/>
  <use xlink:href="#glyph0-4" x="194.141211" y="18.842685"/>
  <use xlink:href="#glyph0-9" x="198.83504" y="18.842685"/>
  <use xlink:href="#glyph0-10" x="203.52887" y="18.842685"/>
  <use xlink:href="#glyph0-11" x="208.2227" y="18.842685"/>
  <use xlink:href="#glyph0-12" x="212.91653" y="18.842685"/>
  <use xlink:href="#glyph0-6" x="217.61036" y="18.842685"/>
  <use xlink:href="#glyph0-13" x="222.30419" y="18.842685"/>
  <use xlink:href="#glyph0-14" x="226.99802" y="18.842685"/>
  <use xlink:href="#glyph0-10" x="231.691849" y="18.842685"/>
  <use xlink:href="#glyph0-15" x="236.385679" y="18.842685"/>
</g>
<g style="fill:rgb(0%,0%,0%);fill-opacity:1;">
  <use xlink:href="#glyph1-1" x="153.863991" y="29.770186"/>
  <use xlink:href="#glyph1-2" x="158.902511" y="29.770186"/>
  <use xlink:href="#glyph1-3" x="166.643076" y="29.770186"/>
  <use xlink:href="#glyph1-4" x="171.689543" y="29.770186"/>
</g>
<g style="fill:rgb(0%,0%,0%);fill-opacity:1;">
  <use xlink:href="#glyph1-5" x="174.781" y="29.770186"/>
  <use xlink:href="#glyph1-6" x="179.668523" y="29.770186"/>
  <use xlink:href="#glyph1-6" x="181.877843" y="29.770186"/>
  <use xlink:href="#glyph1-7" x="184.087162" y="29.770186"/>
</g>
<g style="fill:rgb(0%,0%,0%);fill-opacity:1;">
  <use xlink:href="#glyph1-8" x="191.478051" y="29.770186"/>
  <use xlink:href="#glyph1-7" x="196.524517" y="29.770186"/>
  <use xlink:href="#glyph1-9" x="201.396146" y="29.770186"/>
  <use xlink:href="#glyph1-10" x="205.767102" y="29.770186"/>
</g>
<g style="fill:rgb(0%,0%,0%);fill-opacity:1;">
  <use xlink:href="#glyph1-7" x="210.241371" y="29.770186"/>
  <use xlink:href="#glyph1-11" x="215.112999" y="29.770186"/>
  <use xlink:href="#glyph1-5" x="220.159466" y="29.770186"/>
</g>
<path style=" stroke:none;fill-rule:nonzero;fill:rgb(100%,99.234009%,85.00061%);fill-opacity:1;" d="M 111.984375 64.777344 L 12.523438 64.777344 C 10.328125 64.777344 8.550781 66.554688 8.550781 68.75 L 8.550781 89.070312 C 8.550781 91.261719 10.328125 93.042969 12.523438 93.042969 L 111.984375 93.042969 C 114.179688 93.042969 115.957031 91.261719 115.957031 89.070312 L 115.957031 68.75 C 115.957031 66.554688 114.179688 64.777344 111.984375 64.777344 Z M 111.984375 64.777344 "/>
<g clip-path="url(#clip1)" clip-rule="nonzero">
<path style="fill:none;stroke-width:0.59776;stroke-linecap:butt;stroke-linejoin:miter;stroke:rgb(50%,50%,50%);stroke-opacity:1;stroke-miterlimit:10;" d="M 49.873664 70.866933 L -49.873973 70.866933 C -52.075614 70.866933 -53.858081 69.084466 -53.858081 66.882826 L -53.858081 46.503939 C -53.858081 44.306216 -52.075614 42.519831 -49.873973 42.519831 L 49.873664 42.519831 C 52.075305 42.519831 53.857772 44.306216 53.857772 46.503939 L 53.857772 66.882826 C 53.857772 69.084466 52.075305 70.866933 49.873664 70.866933 Z M 49.873664 70.866933 " transform="matrix(0.997126,0,0,-0.997126,62.25406,135.440588)"/>
</g>
<g style="fill:rgb(0%,0%,0%);fill-opacity:1;">
  <use xlink:href="#glyph0-1" x="22.356068" y="80.621605"/>
  <use xlink:href="#glyph0-2" x="27.049897" y="80.621605"/>
  <use xlink:href="#glyph0-3" x="31.743727" y="80.621605"/>
  <use xlink:href="#glyph0-4" x="36.437557" y="80.621605"/>
  <use xlink:href="#glyph0-3" x="41.131387" y="80.621605"/>
  <use xlink:href="#glyph0-5" x="45.825217" y="80.621605"/>
  <use xlink:href="#glyph0-3" x="50.519047" y="80.621605"/>
  <use xlink:href="#glyph0-6" x="55.212877" y="80.621605"/>
  <use xlink:href="#glyph0-7" x="59.906706" y="80.621605"/>
  <use xlink:href="#glyph0-5" x="64.600536" y="80.621605"/>
  <use xlink:href="#glyph0-8" x="69.294366" y="80.621605"/>
  <use xlink:href="#glyph0-6" x="73.988196" y="80.621605"/>
  <use xlink:href="#glyph0-4" x="78.682026" y="80.621605"/>
  <use xlink:href="#glyph0-16" x="83.375856" y="80.621605"/>
  <use xlink:href="#glyph0-6" x="88.069686" y="80.621605"/>
  <use xlink:href="#glyph0-11" x="92.763515" y="80.621605"/>
  <use xlink:href="#glyph0-12" x="97.457345" y="80.621605"/>
</g>
<path style="fill-rule:nonzero;fill:rgb(100%,99.234009%,85.00061%);fill-opacity:1;stroke-width:0.59776;stroke-linecap:butt;stroke-linejoin:miter;stroke:rgb(50%,50%,50%);stroke-opacity:1;stroke-miterlimit:10;" d="M 188.757226 70.866933 L 66.362464 70.866933 C 64.16474 70.866933 62.378356 69.084466 62.378356 66.882826 L 62.378356 46.503939 C 62.378356 44.306216 64.16474 42.519831 66.362464 42.519831 L 188.757226 42.519831 C 190.958866 42.519831 192.741333 44.306216 192.741333 46.503939 L 192.741333 66.882826 C 192.741333 69.084466 190.958866 70.866933 188.757226 70.866933 Z M 188.757226 70.866933 " transform="matrix(0.997126,0,0,-0.997126,62.25406,135.440588)"/>
<g style="fill:rgb(0%,0%,0%);fill-opacity:1;">
  <use xlink:href="#glyph0-1" x="128.427313" y="80.621605"/>
  <use xlink:href="#glyph0-2" x="133.121143" y="80.621605"/>
  <use xlink:href="#glyph0-3" x="137.814973" y="80.621605"/>
  <use xlink:href="#glyph0-4" x="142.508803" y="80.621605"/>
  <use xlink:href="#glyph0-3" x="147.202633" y="80.621605"/>
  <use xlink:href="#glyph0-5" x="151.896463" y="80.621605"/>
  <use xlink:href="#glyph0-3" x="156.590292" y="80.621605"/>
  <use xlink:href="#glyph0-6" x="161.284122" y="80.621605"/>
  <use xlink:href="#glyph0-7" x="165.977952" y="80.621605"/>
  <use xlink:href="#glyph0-5" x="170.671782" y="80.621605"/>
  <use xlink:href="#glyph0-8" x="175.365612" y="80.621605"/>
  <use xlink:href="#glyph0-6" x="180.059442" y="80.621605"/>
  <use xlink:href="#glyph0-4" x="184.753272" y="80.621605"/>
  <use xlink:href="#glyph0-14" x="189.447102" y="80.621605"/>
  <use xlink:href="#glyph0-10" x="194.140931" y="80.621605"/>
  <use xlink:href="#glyph0-2" x="198.834761" y="80.621605"/>
  <use xlink:href="#glyph0-17" x="203.528591" y="80.621605"/>
  <use xlink:href="#glyph0-6" x="208.222421" y="80.621605"/>
  <use xlink:href="#glyph0-18" x="212.916251" y="80.621605"/>
  <use xlink:href="#glyph0-19" x="217.610081" y="80.621605"/>
  <use xlink:href="#glyph0-10" x="222.303911" y="80.621605"/>
  <use xlink:href="#glyph0-11" x="226.99774" y="80.621605"/>
  <use xlink:href="#glyph0-19" x="231.69157" y="80.621605"/>
  <use xlink:href="#glyph0-5" x="236.3854" y="80.621605"/>
  <use xlink:href="#glyph0-14" x="241.07923" y="80.621605"/>
  <use xlink:href="#glyph0-8" x="245.77306" y="80.621605"/>
</g>
<path style="fill-rule:nonzero;fill:rgb(100%,99.234009%,85.00061%);fill-opacity:1;stroke-width:0.59776;stroke-linecap:butt;stroke-linejoin:miter;stroke:rgb(50%,50%,50%);stroke-opacity:1;stroke-miterlimit:10;" d="M 306.901489 70.866933 L 203.338197 70.866933 C 201.140474 70.866933 199.35409 69.084466 199.35409 66.882826 L 199.35409 46.503939 C 199.35409 44.306216 201.140474 42.519831 203.338197 42.519831 L 306.901489 42.519831 C 309.10313 42.519831 310.889515 44.306216 310.889515 46.503939 L 310.889515 66.882826 C 310.889515 69.084466 309.10313 70.866933 306.901489 70.866933 Z M 306.901489 70.866933 " transform="matrix(0.997126,0,0,-0.997126,62.25406,135.440588)"/>
<g style="fill:rgb(0%,0%,0%);fill-opacity:1;">
  <use xlink:href="#glyph0-1" x="265.00961" y="80.644539"/>
  <use xlink:href="#glyph0-2" x="269.70344" y="80.644539"/>
  <use xlink:href="#glyph0-3" x="274.39727" y="80.644539"/>
  <use xlink:href="#glyph0-4" x="279.091099" y="80.644539"/>
  <use xlink:href="#glyph0-3" x="283.784929" y="80.644539"/>
  <use xlink:href="#glyph0-5" x="288.478759" y="80.644539"/>
  <use xlink:href="#glyph0-3" x="293.172589" y="80.644539"/>
  <use xlink:href="#glyph0-6" x="297.866419" y="80.644539"/>
  <use xlink:href="#glyph0-7" x="302.560249" y="80.644539"/>
  <use xlink:href="#glyph0-5" x="307.254079" y="80.644539"/>
  <use xlink:href="#glyph0-8" x="311.947908" y="80.644539"/>
  <use xlink:href="#glyph0-6" x="316.641738" y="80.644539"/>
  <use xlink:href="#glyph0-4" x="321.335568" y="80.644539"/>
  <use xlink:href="#glyph0-19" x="326.029398" y="80.644539"/>
  <use xlink:href="#glyph0-10" x="330.723228" y="80.644539"/>
  <use xlink:href="#glyph0-11" x="335.417058" y="80.644539"/>
  <use xlink:href="#glyph0-8" x="340.110888" y="80.644539"/>
  <use xlink:href="#glyph0-18" x="344.804717" y="80.644539"/>
  <use xlink:href="#glyph0-9" x="349.498547" y="80.644539"/>
  <use xlink:href="#glyph0-14" x="354.192377" y="80.644539"/>
  <use xlink:href="#glyph0-10" x="358.886207" y="80.644539"/>
  <use xlink:href="#glyph0-12" x="363.580037" y="80.644539"/>
</g>
<path style="fill-rule:nonzero;fill:rgb(89.99939%,89.99939%,100%);fill-opacity:1;stroke-width:0.59776;stroke-linecap:butt;stroke-linejoin:miter;stroke:rgb(50%,50%,50%);stroke-opacity:1;stroke-miterlimit:10;" d="M 190.097014 14.17273 L 65.026593 14.17273 C 62.824952 14.17273 61.038568 12.390263 61.038568 10.188622 L 61.038568 -10.186347 C 61.038568 -12.387987 62.824952 -14.174372 65.026593 -14.174372 L 190.097014 -14.174372 C 192.298655 -14.174372 194.081122 -12.387987 194.081122 -10.186347 L 194.081122 10.188622 C 194.081122 12.390263 192.298655 14.17273 190.097014 14.17273 Z M 190.097014 14.17273 " transform="matrix(0.997126,0,0,-0.997126,62.25406,135.440588)"/>
<g style="fill:rgb(0%,0%,0%);fill-opacity:1;">
  <use xlink:href="#glyph0-1" x="149.550425" y="131.881846"/>
  <use xlink:href="#glyph0-2" x="154.244255" y="131.881846"/>
  <use xlink:href="#glyph0-3" x="158.938085" y="131.881846"/>
  <use xlink:href="#glyph0-4" x="163.631915" y="131.881846"/>
  <use xlink:href="#glyph0-3" x="168.325745" y="131.881846"/>
  <use xlink:href="#glyph0-5" x="173.019574" y="131.881846"/>
  <use xlink:href="#glyph0-3" x="177.713404" y="131.881846"/>
  <use xlink:href="#glyph0-6" x="182.407234" y="131.881846"/>
  <use xlink:href="#glyph0-7" x="187.101064" y="131.881846"/>
  <use xlink:href="#glyph0-5" x="191.794894" y="131.881846"/>
  <use xlink:href="#glyph0-8" x="196.488724" y="131.881846"/>
  <use xlink:href="#glyph0-6" x="201.182554" y="131.881846"/>
  <use xlink:href="#glyph0-4" x="205.876384" y="131.881846"/>
  <use xlink:href="#glyph0-2" x="210.570213" y="131.881846"/>
  <use xlink:href="#glyph0-14" x="215.264043" y="131.881846"/>
  <use xlink:href="#glyph0-10" x="219.957873" y="131.881846"/>
  <use xlink:href="#glyph0-6" x="224.651703" y="131.881846"/>
</g>
<g style="fill:rgb(0%,0%,0%);fill-opacity:1;">
  <use xlink:href="#glyph1-12" x="127.092162" y="142.809347"/>
  <use xlink:href="#glyph1-4" x="129.889573" y="142.809347"/>
  <use xlink:href="#glyph1-7" x="133.155869" y="142.809347"/>
  <use xlink:href="#glyph1-2" x="138.027498" y="142.809347"/>
  <use xlink:href="#glyph1-5" x="145.768063" y="142.809347"/>
  <use xlink:href="#glyph1-13" x="150.655586" y="142.809347"/>
  <use xlink:href="#glyph1-14" x="157.156389" y="142.809347"/>
  <use xlink:href="#glyph1-4" x="162.02007" y="142.809347"/>
  <use xlink:href="#glyph1-10" x="165.286366" y="142.809347"/>
  <use xlink:href="#glyph1-15" x="169.88779" y="142.809347"/>
  <use xlink:href="#glyph1-7" x="172.756727" y="142.809347"/>
  <use xlink:href="#glyph1-11" x="177.628355" y="142.809347"/>
  <use xlink:href="#glyph1-16" x="182.674822" y="142.809347"/>
  <use xlink:href="#glyph1-14" x="187.713342" y="142.809347"/>
  <use xlink:href="#glyph1-17" x="192.577023" y="142.809347"/>
  <use xlink:href="#glyph1-18" x="196.71751" y="142.809347"/>
  <use xlink:href="#glyph1-19" x="199.83281" y="142.809347"/>
  <use xlink:href="#glyph1-9" x="202.042129" y="142.809347"/>
</g>
<g style="fill:rgb(0%,0%,0%);fill-opacity:1;">
  <use xlink:href="#glyph1-12" x="208.932344" y="142.809347"/>
  <use xlink:href="#glyph1-14" x="211.729756" y="142.809347"/>
  <use xlink:href="#glyph1-1" x="216.593437" y="142.809347"/>
  <use xlink:href="#glyph1-16" x="221.631957" y="142.809347"/>
  <use xlink:href="#glyph1-20" x="226.670477" y="142.809347"/>
  <use xlink:href="#glyph1-7" x="231.716944" y="142.809347"/>
  <use xlink:href="#glyph1-18" x="236.588572" y="142.809347"/>
  <use xlink:href="#glyph1-19" x="239.703872" y="142.809347"/>
  <use xlink:href="#glyph1-14" x="241.913191" y="142.809347"/>
  <use xlink:href="#glyph1-16" x="246.776872" y="142.809347"/>
</g>
<path style=" stroke:none;fill-rule:nonzero;fill:rgb(92.498779%,92.498779%,92.498779%);fill-opacity:1;" d="M 476.878906 64.777344 L 354.261719 64.777344 C 352.066406 64.777344 350.289062 66.554688 350.289062 68.75 L 350.289062 89.070312 C 350.289062 91.261719 352.066406 93.042969 354.261719 93.042969 L 476.878906 93.042969 C 479.074219 93.042969 480.851562 91.261719 480.851562 89.070312 L 480.851562 68.75 C 480.851562 66.554688 479.074219 64.777344 476.878906 64.777344 Z M 476.878906 64.777344 "/>
<g clip-path="url(#clip2)" clip-rule="nonzero">
<path style="fill:none;stroke-width:0.59776;stroke-linecap:butt;stroke-linejoin:miter;stroke:rgb(50%,50%,50%);stroke-opacity:1;stroke-miterlimit:10;" d="M 415.820017 70.866933 L 292.849381 70.866933 C 290.647741 70.866933 288.865274 69.084466 288.865274 66.882826 L 288.865274 46.503939 C 288.865274 44.306216 290.647741 42.519831 292.849381 42.519831 L 415.820017 42.519831 C 418.021658 42.519831 419.804125 44.306216 419.804125 46.503939 L 419.804125 66.882826 C 419.804125 69.084466 418.021658 70.866933 415.820017 70.866933 Z M 415.820017 70.866933 " transform="matrix(0.997126,0,0,-0.997126,62.25406,135.440588)"/>
</g>
<g style="fill:rgb(0%,0%,0%);fill-opacity:1;">
  <use xlink:href="#glyph2-1" x="375.933867" y="75.816456"/>
  <use xlink:href="#glyph2-2" x="380.106142" y="75.816456"/>
  <use xlink:href="#glyph2-3" x="384.278418" y="75.816456"/>
  <use xlink:href="#glyph2-4" x="388.450694" y="75.816456"/>
  <use xlink:href="#glyph2-3" x="392.62297" y="75.816456"/>
  <use xlink:href="#glyph2-5" x="396.795245" y="75.816456"/>
  <use xlink:href="#glyph2-3" x="400.967521" y="75.816456"/>
  <use xlink:href="#glyph2-6" x="405.139797" y="75.816456"/>
  <use xlink:href="#glyph2-7" x="409.312073" y="75.816456"/>
  <use xlink:href="#glyph2-5" x="413.484348" y="75.816456"/>
  <use xlink:href="#glyph2-8" x="417.656624" y="75.816456"/>
  <use xlink:href="#glyph2-6" x="421.8289" y="75.816456"/>
  <use xlink:href="#glyph2-4" x="426.001176" y="75.816456"/>
  <use xlink:href="#glyph2-9" x="430.173451" y="75.816456"/>
  <use xlink:href="#glyph2-6" x="434.345727" y="75.816456"/>
  <use xlink:href="#glyph2-10" x="438.518003" y="75.816456"/>
  <use xlink:href="#glyph2-9" x="442.690279" y="75.816456"/>
  <use xlink:href="#glyph2-6" x="446.862555" y="75.816456"/>
  <use xlink:href="#glyph2-11" x="451.03483" y="75.816456"/>
</g>
<g style="fill:rgb(0%,0%,0%);fill-opacity:1;">
  <use xlink:href="#glyph3-1" x="354.262336" y="85.254251"/>
  <use xlink:href="#glyph3-2" x="357.377635" y="85.254251"/>
  <use xlink:href="#glyph3-3" x="362.265158" y="85.254251"/>
  <use xlink:href="#glyph3-1" x="366.405645" y="85.254251"/>
</g>
<g style="fill:rgb(0%,0%,0%);fill-opacity:1;">
  <use xlink:href="#glyph3-4" x="372.040204" y="85.254251"/>
  <use xlink:href="#glyph3-2" x="377.078724" y="85.254251"/>
  <use xlink:href="#glyph3-5" x="381.966247" y="85.254251"/>
  <use xlink:href="#glyph3-6" x="384.175566" y="85.254251"/>
  <use xlink:href="#glyph3-2" x="389.222033" y="85.254251"/>
  <use xlink:href="#glyph3-7" x="394.109556" y="85.254251"/>
  <use xlink:href="#glyph3-3" x="397.375852" y="85.254251"/>
  <use xlink:href="#glyph3-8" x="401.516339" y="85.254251"/>
</g>
<g style="fill:rgb(0%,0%,0%);fill-opacity:1;">
  <use xlink:href="#glyph3-9" x="406.721749" y="85.254251"/>
  <use xlink:href="#glyph3-3" x="411.760269" y="85.254251"/>
  <use xlink:href="#glyph3-2" x="415.900756" y="85.254251"/>
  <use xlink:href="#glyph3-10" x="420.788279" y="85.254251"/>
</g>
<g style="fill:rgb(0%,0%,0%);fill-opacity:1;">
  <use xlink:href="#glyph3-11" x="428.361953" y="85.254251"/>
  <use xlink:href="#glyph3-12" x="430.571272" y="85.254251"/>
</g>
<g style="fill:rgb(0%,0%,0%);fill-opacity:1;">
  <use xlink:href="#glyph3-1" x="438.136999" y="85.254251"/>
  <use xlink:href="#glyph3-2" x="441.252298" y="85.254251"/>
  <use xlink:href="#glyph3-3" x="446.139821" y="85.254251"/>
  <use xlink:href="#glyph3-1" x="450.280308" y="85.254251"/>
  <use xlink:href="#glyph3-3" x="453.395608" y="85.254251"/>
</g>
<g style="fill:rgb(0%,0%,0%);fill-opacity:1;">
  <use xlink:href="#glyph3-13" x="460.063302" y="85.254251"/>
  <use xlink:href="#glyph3-12" x="464.926983" y="85.254251"/>
  <use xlink:href="#glyph3-5" x="469.965503" y="85.254251"/>
  <use xlink:href="#glyph3-14" x="472.174822" y="85.254251"/>
</g>
<path style="fill:none;stroke-width:0.59776;stroke-linecap:butt;stroke-linejoin:miter;stroke:rgb(29.998779%,29.998779%,29.998779%);stroke-opacity:1;stroke-miterlimit:10;" d="M 71.494402 98.916304 C 56.506009 72.951048 -0.000154313 101.145367 -0.000154313 73.60919 " transform="matrix(0.997126,0,0,-0.997126,62.25406,135.440588)"/>
<path style="fill-rule:nonzero;fill:rgb(29.998779%,29.998779%,29.998779%);fill-opacity:1;stroke-width:0.59776;stroke-linecap:butt;stroke-linejoin:miter;stroke:rgb(29.998779%,29.998779%,29.998779%);stroke-opacity:1;stroke-miterlimit:10;" d="M 3.132319 -0.000154313 L 0.965936 0.822523 L 1.690675 -0.000154313 L 0.965936 -0.822831 Z M 3.132319 -0.000154313 " transform="matrix(0,0.997126,0.997126,0,62.25406,60.50559)"/>
<path style="fill:none;stroke-width:0.59776;stroke-linecap:butt;stroke-linejoin:miter;stroke:rgb(29.998779%,29.998779%,29.998779%);stroke-opacity:1;stroke-miterlimit:10;" d="M 127.561803 98.916304 L 127.561803 73.60919 " transform="matrix(0.997126,0,0,-0.997126,62.25406,135.440588)"/>
<path style="fill-rule:nonzero;fill:rgb(29.998779%,29.998779%,29.998779%);fill-opacity:1;stroke-width:0.59776;stroke-linecap:butt;stroke-linejoin:miter;stroke:rgb(29.998779%,29.998779%,29.998779%);stroke-opacity:1;stroke-miterlimit:10;" d="M 3.132319 0.00118333 L 0.965936 0.82386 L 1.690675 0.00118333 L 0.965936 -0.821494 Z M 3.132319 0.00118333 " transform="matrix(0,0.997126,0.997126,0,189.448039,60.50559)"/>
<path style="fill:none;stroke-width:0.59776;stroke-linecap:butt;stroke-linejoin:miter;stroke:rgb(29.998779%,29.998779%,29.998779%);stroke-opacity:1;stroke-miterlimit:10;" d="M 183.625288 98.916304 C 198.617598 72.951048 255.119843 101.145367 255.119843 73.60919 " transform="matrix(0.997126,0,0,-0.997126,62.25406,135.440588)"/>
<path style="fill-rule:nonzero;fill:rgb(29.998779%,29.998779%,29.998779%);fill-opacity:1;stroke-width:0.59776;stroke-linecap:butt;stroke-linejoin:miter;stroke:rgb(29.998779%,29.998779%,29.998779%);stroke-opacity:1;stroke-miterlimit:10;" d="M 3.132319 -0.00143653 L 0.965936 0.821241 L 1.690675 -0.00143653 L 0.965936 -0.824114 Z M 3.132319 -0.00143653 " transform="matrix(0,0.997126,0.997126,0,316.642057,60.50559)"/>
<path style="fill:none;stroke-width:0.59776;stroke-linecap:butt;stroke-linejoin:miter;stroke:rgb(29.998779%,29.998779%,29.998779%);stroke-opacity:1;stroke-miterlimit:10;" d="M -0.000154313 42.222101 C -0.000154313 16.096227 43.946472 34.485019 59.169915 16.34303 " transform="matrix(0.997126,0,0,-0.997126,62.25406,135.440588)"/>
<path style="fill-rule:nonzero;fill:rgb(29.998779%,29.998779%,29.998779%);fill-opacity:1;stroke-width:0.59776;stroke-linecap:butt;stroke-linejoin:miter;stroke:rgb(29.998779%,29.998779%,29.998779%);stroke-opacity:1;stroke-miterlimit:10;" d="M 3.132806 -0.000732198 L 0.964219 0.82172 L 1.692247 0.00115346 L 0.966159 -0.821494 Z M 3.132806 -0.000732198 " transform="matrix(0.640942,0.763838,0.763838,-0.640942,120.266048,117.965949)"/>
<path style="fill:none;stroke-width:0.59776;stroke-linecap:butt;stroke-linejoin:miter;stroke:rgb(29.998779%,29.998779%,29.998779%);stroke-opacity:1;stroke-miterlimit:10;" d="M 127.561803 42.222101 L 127.561803 16.914987 " transform="matrix(0.997126,0,0,-0.997126,62.25406,135.440588)"/>
<path style="fill-rule:nonzero;fill:rgb(29.998779%,29.998779%,29.998779%);fill-opacity:1;stroke-width:0.59776;stroke-linecap:butt;stroke-linejoin:miter;stroke:rgb(29.998779%,29.998779%,29.998779%);stroke-opacity:1;stroke-miterlimit:10;" d="M 3.132902 0.00118333 L 0.966519 0.82386 L 1.691259 0.00118333 L 0.966519 -0.821494 Z M 3.132902 0.00118333 " transform="matrix(0,0.997126,0.997126,0,189.448039,117.036259)"/>
<path style="fill:none;stroke-width:0.59776;stroke-linecap:butt;stroke-linejoin:miter;stroke:rgb(29.998779%,29.998779%,29.998779%);stroke-opacity:1;stroke-miterlimit:10;" d="M 255.119843 42.222101 C 255.119843 16.096227 211.173217 34.485019 195.949774 16.34303 " transform="matrix(0.997126,0,0,-0.997126,62.25406,135.440588)"/>
<path style="fill-rule:nonzero;fill:rgb(29.998779%,29.998779%,29.998779%);fill-opacity:1;stroke-width:0.59776;stroke-linecap:butt;stroke-linejoin:miter;stroke:rgb(29.998779%,29.998779%,29.998779%);stroke-opacity:1;stroke-miterlimit:10;" d="M 3.133816 -0.000471134 L 0.964651 0.823292 L 1.690739 0.000644185 L 0.965229 -0.822923 Z M 3.133816 -0.000471134 " transform="matrix(-0.640942,0.763838,0.763838,0.640942,258.630049,117.965949)"/>
<path style="fill:none;stroke-width:0.59776;stroke-linecap:butt;stroke-linejoin:miter;stroke:rgb(50%,50%,50%);stroke-opacity:1;stroke-dasharray:2.98883,2.98883;stroke-miterlimit:10;" d="M 354.334699 42.222101 C 354.334699 -22.42073 258.042306 11.222845 196.788121 0.426188 " transform="matrix(0.997126,0,0,-0.997126,62.25406,135.440588)"/>
<path style="fill-rule:nonzero;fill:rgb(50%,50%,50%);fill-opacity:1;stroke-width:0.59776;stroke-linecap:butt;stroke-linejoin:miter;stroke:rgb(50%,50%,50%);stroke-opacity:1;stroke-miterlimit:10;" d="M 3.135369 -0.000516193 L 0.965489 0.82361 L 1.691364 -0.000514274 L 0.965518 -0.823277 Z M 3.135369 -0.000516193 " transform="matrix(-0.981969,0.173131,0.173131,0.981969,259.989082,134.750646)"/>
</g>
</svg>
